 <svg  version="1.0" xmlns="http://www.w3.org/2000/svg"  width="300.000000pt" height="300.000000pt" viewBox="0 0 300.000000 300.000000"  preserveAspectRatio="xMidYMid meet">  <g transform="translate(0.000000,300.000000) scale(0.100000,-0.100000)" fill="#5d0404" stroke="none"> <path d="M650 2975 c-37 -39 -157 -116 -231 -147 -67 -28 -232 -74 -354 -99 -33 -6 -54 -14 -47 -16 19 -7 204 35 322 73 58 18 139 54 180 78 81 49 169 120 159 130 -3 3 -16 -5 -29 -19z"/> <path d="M1047 2983 c-4 -3 -7 -59 -7 -124 0 -107 2 -119 19 -129 30 -16 552 -14 574 3 15 11 17 28 15 132 l-3 120 -205 0 -205 1 200 -6 200 -5 0 -115 0 -115 -290 0 -290 0 0 115 0 115 70 6 70 5 -71 2 c-39 1 -74 -1 -77 -5z"/> <path d="M578 2876 c-42 -28 -77 -55 -77 -60 -1 -11 160 -176 172 -176 12 0 3 268 -9 279 -5 4 -44 -16 -86 -43z m88 -101 l6 -120 -78 78 -79 79 25 16 c13 9 43 31 65 48 22 17 43 29 47 25 4 -3 10 -60 14 -126z"/> <path d="M2156 2888 c-22 -21 -27 -37 -40 -155 -16 -134 -19 -180 -12 -172 2 2 12 67 21 144 10 77 24 150 31 163 l14 22 379 0 c312 0 381 -2 390 -14 9 -11 4 -80 -24 -298 -19 -155 -38 -301 -41 -322 -6 -39 -7 -39 -19 -15 -10 20 -6 68 21 279 18 140 33 261 34 268 0 9 -81 12 -370 12 -288 0 -372 -3 -375 -12 -2 -7 -13 -84 -24 -171 -11 -87 -21 -161 -24 -163 -9 -9 -55 61 -65 99 -9 32 -8 44 9 70 24 41 24 50 -1 37 -18 -10 -20 -8 -20 18 0 38 -24 60 -45 42 -12 -10 -15 -29 -14 -69 1 -31 -4 -74 -11 -95 -29 -88 13 -226 87 -285 20 -15 33 -35 33 -48 0 -12 -20 -179 -45 -370 -25 -191 -45 -360 -45 -375 0 -24 4 -28 29 -28 39 0 47 -15 26 -47 -12 -18 -14 -28 -6 -36 6 -6 11 -25 11 -43 0 -26 5 -33 25 -38 20 -5 25 -13 25 -39 l0 -32 -64 0 c-71 0 -70 -4 -18 77 24 37 23 58 -4 58 -8 0 -14 6 -14 14 0 19 -20 25 -47 15 -17 -6 -81 7 -225 46 -111 31 -207 54 -213 52 -11 -4 -36 -178 -26 -189 5 -5 156 2 339 16 l62 5 -1 -27 c-1 -65 -1 -65 -161 -63 -155 2 -201 -8 -211 -46 -3 -10 -22 -115 -42 -233 l-38 -215 -276 1 c-152 1 -284 -2 -293 -7 -16 -8 -18 -26 -18 -129 0 -65 4 -121 9 -124 4 -3 126 -6 270 -6 241 -1 262 -3 257 -18 -3 -9 -10 -52 -17 -94 -9 -62 -9 -81 1 -93 11 -13 95 -15 675 -15 617 0 664 1 684 18 16 13 26 43 41 127 125 706 139 789 130 805 -5 10 -39 27 -77 39 -38 11 -79 29 -92 39 l-23 19 63 6 c62 7 168 50 176 72 2 6 -35 21 -82 34 -78 21 -84 25 -72 40 16 17 20 44 122 856 36 286 64 536 63 555 -5 59 -10 60 -430 60 -377 0 -377 0 -402 -22z m740 -115 c-2 -10 -17 -121 -32 -248 -15 -126 -28 -231 -29 -233 -2 -3 -62 49 -135 120 -37 35 -77 62 -107 73 -27 9 -57 21 -68 25 -20 8 -20 9 1 9 22 1 47 24 57 54 5 12 -1 26 -18 41 -14 13 -25 33 -25 44 0 12 -8 25 -17 30 -21 10 -125 8 -142 -2 -17 -11 -13 -44 9 -66 15 -15 18 -25 11 -37 -5 -9 -5 -29 -1 -44 8 -26 6 -28 -35 -38 -23 -6 -64 -26 -91 -46 -68 -49 -72 -50 -111 -31 -24 12 -33 21 -29 34 2 9 12 78 21 152 9 74 18 145 21 158 l4 22 361 0 c338 0 360 -1 355 -17z m-868 -106 c2 -20 7 -37 13 -37 5 0 4 -8 -2 -18 -17 -27 -3 -83 33 -133 l31 -43 -36 -33 c-37 -33 -61 -41 -72 -24 -16 26 -23 110 -13 156 6 28 10 74 9 103 -1 29 1 57 4 63 13 20 30 2 33 -34z m476 -72 c6 -11 15 -23 19 -26 4 -3 1 -12 -8 -19 -26 -21 -15 -120 14 -120 14 0 14 -2 1 -10 -18 -11 -77 -12 -104 -1 -18 7 -18 8 -3 14 9 3 17 13 17 22 0 9 12 27 26 40 l26 24 -35 -6 c-30 -4 -36 -2 -42 17 -4 12 -4 36 -1 54 6 30 9 33 43 32 25 -1 40 -8 47 -21z m-76 -122 c-3 -24 -10 -30 -52 -40 -27 -7 -70 -15 -95 -18 l-46 -6 30 26 c31 26 117 64 148 64 14 1 18 -5 15 -26z m160 1 c36 -14 116 -74 109 -80 -2 -2 -20 3 -40 11 -20 8 -59 20 -86 26 -43 9 -49 13 -53 40 -5 32 -1 32 70 3z m-290 -72 c55 10 96 12 110 7 31 -12 114 -11 145 0 32 12 139 -25 201 -69 105 -76 147 -201 94 -280 -30 -44 -44 -47 -51 -12 -3 15 -17 39 -30 52 -13 14 -27 35 -31 46 -9 30 -42 58 -61 51 -10 -5 -15 -20 -15 -52 0 -50 -16 -59 -58 -29 -18 12 -21 22 -17 47 5 28 2 34 -22 45 -15 6 -42 12 -60 12 l-33 0 0 -59 c0 -58 1 -60 29 -66 16 -3 35 -13 42 -21 7 -8 37 -26 66 -41 38 -18 53 -29 49 -40 -3 -8 -6 -25 -6 -38 0 -40 -30 -48 -121 -30 -45 8 -121 15 -170 15 -104 0 -111 6 -84 73 18 44 23 119 11 173 -7 30 -9 32 -71 36 -74 6 -140 40 -180 92 -31 40 -31 42 -1 50 13 3 37 21 52 38 l29 33 48 -24 c48 -24 49 -24 135 -9z m-166 -242 c13 -173 135 -289 313 -298 106 -5 175 20 246 89 37 36 58 49 80 49 25 0 29 -3 24 -22 -3 -13 -16 -117 -30 -233 -32 -271 -34 -285 -49 -285 -6 0 -43 20 -80 45 -92 60 -128 60 -248 4 l-87 -42 -31 27 c-20 16 -43 26 -64 26 -45 0 -125 -25 -139 -44 -8 -10 -20 -14 -35 -10 -19 5 -22 12 -18 33 3 14 24 179 47 366 23 187 43 346 45 353 9 32 22 5 26 -58z m90 43 c36 -4 48 -10 52 -27 11 -39 6 -116 -9 -153 -8 -19 -15 -45 -15 -57 -1 -19 -4 -17 -30 13 -43 51 -70 113 -77 183 -6 58 -5 61 13 54 10 -4 40 -10 66 -13z m495 -53 c14 -29 1 -50 -29 -50 -14 0 -18 5 -14 16 3 9 6 27 6 41 0 30 20 26 37 -7z m-141 -31 c33 -32 78 -40 145 -25 34 7 37 6 52 -27 10 -19 17 -41 17 -47 0 -21 -116 -5 -171 24 -61 31 -129 86 -129 105 0 21 51 4 86 -30z m234 -372 c-20 -155 -39 -288 -43 -295 -13 -20 -41 -15 -32 6 5 9 23 136 42 281 30 239 41 291 62 291 3 0 -10 -127 -29 -283z m-116 222 c-15 -16 -28 -28 -30 -26 -1 1 0 16 3 33 4 27 8 30 30 26 l24 -5 -27 -28z m-63 -508 c33 -22 82 -47 109 -55 62 -18 112 -45 106 -55 -3 -5 -29 -12 -58 -15 -82 -11 -105 -41 -71 -93 17 -25 17 -26 -7 -18 -14 4 -42 16 -62 26 -45 23 -66 24 -89 3 -23 -21 -31 -15 -79 56 -22 32 -60 73 -85 91 -25 18 -45 36 -45 39 0 6 70 40 130 64 34 13 92 -4 151 -43z m-875 -56 c193 -51 270 -67 219 -45 -19 8 -19 9 3 9 25 1 28 -11 8 -32 -10 -10 -55 -16 -163 -21 -81 -3 -186 -9 -232 -13 l-84 -6 7 59 c10 85 17 115 25 110 4 -3 102 -30 217 -61z m505 48 c16 -10 28 -24 27 -33 -5 -25 -29 -17 -55 18 -28 36 -17 41 28 15z m-98 -2 c13 -5 30 -23 37 -40 8 -19 20 -31 31 -31 28 0 24 -35 -6 -54 -43 -28 -25 -118 34 -178 l38 -37 -30 -7 c-37 -8 -104 2 -141 21 -37 20 -46 12 -12 -10 14 -9 52 -19 85 -22 l60 -6 -24 -31 c-21 -28 -46 -99 -105 -303 l-20 -72 -35 15 c-19 8 -46 14 -60 14 -26 0 -33 -14 -14 -26 21 -12 -8 -26 -41 -19 -31 7 -31 8 -25 48 35 223 107 413 167 438 25 10 28 16 27 53 -2 63 -12 91 -36 94 -40 6 -31 125 11 154 15 10 30 10 59 -1z m228 -98 c33 -30 68 -75 101 -128 4 -7 -41 -9 -130 -8 -136 3 -137 3 -143 27 -6 20 -2 26 21 36 30 12 70 75 70 109 0 19 3 20 21 11 11 -7 38 -28 60 -47z m-375 -54 c-14 -17 -26 -36 -26 -44 0 -7 -10 -20 -23 -28 -19 -12 -27 -35 -46 -123 -35 -167 -62 -215 -143 -248 -40 -17 -50 -11 -61 35 -11 46 12 96 103 219 77 105 90 128 90 161 0 35 2 39 26 39 23 0 25 -2 14 -15 -7 -9 -10 -18 -7 -21 3 -4 18 8 32 25 15 17 36 31 47 31 19 0 18 -2 -6 -31z m594 -64 c36 -19 38 -25 7 -25 -12 0 -28 9 -35 20 -15 24 -10 25 28 5z m-766 -70 l-26 -35 -144 0 -144 0 11 27 c6 15 16 31 22 35 7 4 79 8 160 8 l148 0 -27 -35z m276 20 c0 -11 -11 -15 -38 -15 -22 0 -61 -7 -88 -15 -27 -8 -49 -15 -50 -15 0 0 1 14 4 30 l4 30 84 0 c68 0 84 -3 84 -15z m444 -10 c27 -14 58 -25 69 -25 20 0 19 1 -3 25 l-23 25 34 0 c41 0 54 -9 54 -35 0 -13 8 -21 23 -23 17 -3 22 2 23 20 l0 23 10 -23 c10 -27 55 -28 53 -1 -1 11 8 16 27 17 20 0 29 -4 29 -15 0 -10 -6 -14 -20 -10 -22 6 -28 -8 -7 -16 6 -3 -112 -6 -264 -6 l-275 -1 -27 28 c-15 15 -27 31 -27 35 0 4 62 7 138 7 126 0 141 -2 186 -25z m334 -13 c3 -29 1 -32 -24 -32 -22 0 -25 2 -14 15 7 8 10 21 7 29 -3 8 -3 17 1 20 13 13 27 -2 30 -32z m-874 -89 c-59 -116 -89 -240 -120 -498 -13 -116 -27 -225 -30 -242 l-5 -33 -91 0 -91 0 7 55 c8 67 60 228 115 354 22 52 39 96 37 98 -2 2 -22 0 -45 -6 -49 -11 -110 1 -128 25 -17 23 -16 56 1 98 22 52 34 52 28 1 -5 -49 16 -95 44 -95 26 0 91 38 118 70 14 17 35 64 46 103 12 40 24 83 28 97 5 19 20 29 57 42 28 9 55 17 62 18 7 0 -8 -39 -33 -87z m-234 22 c-10 -11 -35 -15 -110 -15 l-98 0 -36 -187 c-19 -104 -43 -233 -53 -288 l-18 -100 -6 110 c-4 92 -1 137 23 280 16 94 31 180 33 193 5 21 8 22 141 22 120 0 135 -2 124 -15z m1100 0 c0 -8 -32 -194 -71 -413 -59 -335 -73 -400 -91 -414 -19 -17 -66 -18 -673 -18 -531 0 -655 2 -664 13 -8 10 -6 38 6 105 15 85 18 92 40 92 12 0 23 3 23 8 0 4 -132 7 -292 7 l-293 0 0 115 0 115 290 0 290 0 5 -120 c4 -86 0 -145 -11 -208 l-16 -87 627 0 628 0 5 23 c3 12 24 121 47 242 40 217 86 458 96 503 l4 22 -219 0 c-136 0 -222 4 -226 10 -3 6 -11 10 -16 10 -6 0 1 -15 15 -32 29 -39 40 -78 60 -221 19 -129 20 -196 4 -234 l-12 -28 -4 28 c-3 23 -8 27 -37 27 -41 0 -265 29 -275 35 -9 5 83 312 105 356 8 15 28 38 44 52 l31 25 290 2 c255 1 290 -1 290 -15z m-1146 -64 c-14 -22 -32 -42 -40 -45 -48 -18 -72 -138 -35 -175 23 -23 79 -36 126 -28 l33 5 -29 -66 c-45 -100 -119 -324 -119 -359 0 -62 -2 -63 -122 -63 -109 0 -110 0 -105 23 3 12 20 99 37 192 47 255 100 528 105 543 3 8 31 12 90 12 l85 0 -26 -39z m1076 30 c0 -4 -127 -679 -136 -723 l-5 -27 -164 -3 -163 -3 -4 26 c-2 14 -2 56 0 93 4 63 5 66 27 60 29 -7 65 26 65 61 0 14 9 34 20 45 17 17 20 33 20 108 0 93 -31 306 -49 340 -6 11 -11 22 -11 24 0 2 90 3 200 3 110 0 200 -2 200 -4z m-740 -382 c28 -13 93 -26 175 -36 195 -23 179 -16 172 -74 -8 -64 -12 -69 -50 -69 -31 0 -81 23 -193 85 -51 29 -52 29 -117 16 -36 -7 -71 -10 -76 -6 -21 12 -11 46 18 63 26 15 27 18 13 29 -27 20 6 16 58 -8z m118 -118 c37 -21 84 -46 106 -55 28 -12 37 -20 32 -32 -3 -8 -6 -51 -6 -95 l0 -79 -155 0 c-104 0 -155 4 -155 11 0 9 64 244 75 277 7 20 33 14 103 -27z m-196 -4 c40 -18 40 -12 2 -146 -13 -46 -24 -66 -41 -74 -43 -19 -48 0 -34 120 12 107 17 127 29 121 4 -2 23 -12 44 -21z"/> <path d="M2297 1712 c-22 -24 -21 -45 1 -65 27 -24 59 -21 78 8 15 23 15 27 0 50 -20 30 -56 33 -79 7z m61 -4 c17 -17 15 -43 -4 -59 -31 -26 -70 25 -44 56 15 18 32 19 48 3z"/> <path d="M2423 1718 c-33 -43 -11 -91 40 -86 42 4 60 47 32 78 -20 22 -58 26 -72 8z m61 -20 c27 -39 -18 -80 -52 -46 -17 17 -15 45 6 57 24 15 29 14 46 -11z"/> <path d="M2545 1710 c-27 -29 -10 -74 28 -78 36 -4 57 13 57 47 0 51 -50 69 -85 31z m56 0 c21 -12 25 -40 7 -58 -18 -18 -46 -14 -58 9 -9 16 -8 25 6 40 20 22 20 22 45 9z"/> <path d="M2050 953 c0 -32 21 -93 32 -93 6 0 7 7 2 18 -4 9 -9 34 -12 55 -4 37 -22 53 -22 20z"/> <path d="M2288 1243 c28 -2 76 -2 105 0 28 2 5 3 -53 3 -58 0 -81 -1 -52 -3z"/> <path d="M1058 623 c61 -2 163 -2 225 0 61 1 11 3 -113 3 -124 0 -174 -2 -112 -3z"/> <path d="M950 568 c0 -5 65 -8 145 -8 80 0 145 3 145 8 0 4 -65 7 -145 7 -80 0 -145 -3 -145 -7z"/> <path d="M1290 568 c0 -4 23 -8 52 -8 28 0 49 3 45 6 -9 9 -97 11 -97 2z"/> <path d="M1130 2890 c0 -6 80 -10 220 -10 140 0 220 4 220 10 0 6 -80 10 -220 10 -140 0 -220 -4 -220 -10z"/> <path d="M1770 2885 c-14 -17 -5 -51 16 -59 22 -8 54 11 54 32 0 38 -46 56 -70 27z m50 -10 c15 -18 5 -35 -21 -35 -12 0 -19 7 -19 18 0 33 20 42 40 17z"/> <path d="M2527 2874 c-4 -4 -7 -16 -7 -26 0 -14 6 -19 23 -16 14 2 22 10 22 23 0 20 -25 32 -38 19z"/> <path d="M1203 2833 c43 -2 110 -2 150 0 40 1 5 3 -78 3 -82 0 -115 -2 -72 -3z"/> <path d="M335 2771 c-47 -16 -81 -34 -83 -43 -5 -27 96 -198 118 -198 10 0 27 61 45 164 17 102 18 106 8 105 -5 0 -44 -13 -88 -28z m75 -10 c0 -28 -31 -184 -39 -199 -5 -9 -19 4 -44 41 -49 74 -70 126 -54 132 49 18 123 44 130 44 4 1 7 -8 7 -18z"/> <path d="M1700 2696 c0 -43 -5 -60 -25 -84 -14 -17 -25 -35 -25 -41 0 -6 -4 -19 -9 -29 -5 -9 -12 -25 -15 -34 -4 -15 -25 -17 -165 -20 l-161 -3 -6 45 c-10 64 -48 100 -107 100 -35 0 -50 -6 -71 -26 -23 -24 -26 -35 -26 -95 0 -62 -3 -72 -27 -98 -42 -43 -88 -51 -295 -51 l-188 0 0 -23 c0 -13 22 -143 50 -289 62 -335 60 -318 33 -328 -20 -8 -22 -4 -35 63 l-13 72 -31 -5 c-28 -4 -31 -7 -23 -29 8 -19 12 -21 24 -11 20 17 20 -4 -1 -24 -23 -23 -41 -20 -48 9 -4 14 -6 28 -5 31 0 4 -5 11 -13 15 -11 7 -10 11 2 19 8 6 24 10 35 9 65 -4 78 8 56 49 -6 9 -26 112 -46 227 -20 116 -39 218 -41 228 -5 16 11 17 245 17 161 0 251 4 251 10 0 6 -63 10 -167 11 -93 0 -162 3 -155 6 14 6 17 43 2 43 -5 0 -7 -7 -4 -15 4 -10 0 -15 -11 -15 -11 0 -15 5 -11 15 3 8 1 15 -4 15 -15 0 -12 -37 3 -43 14 -6 -16 -10 -95 -11 -61 -1 -74 9 -63 45 5 15 16 19 56 19 30 0 48 -4 44 -10 -3 -5 -19 -7 -34 -4 -31 7 -50 -11 -32 -29 8 -8 11 -6 11 6 0 9 5 17 10 17 14 0 13 -13 -2 -28 -9 -9 -9 -12 -1 -12 7 0 15 5 18 10 4 7 13 7 26 0 11 -6 24 -8 29 -5 14 9 12 42 -2 49 -7 3 1 5 17 5 155 -4 425 3 425 11 0 6 -98 10 -274 10 -236 0 -277 -2 -290 -16 -9 -8 -16 -21 -16 -27 0 -7 20 -124 45 -261 24 -137 42 -253 38 -259 -3 -5 -25 -7 -49 -3 -35 4 -44 2 -44 -9 0 -11 -8 -13 -29 -9 -38 8 -45 -14 -21 -63 11 -21 22 -46 25 -56 3 -13 11 -17 25 -12 15 5 23 0 32 -19 11 -26 25 -30 65 -20 18 5 22 11 17 29 -3 13 -1 26 5 29 10 7 12 0 15 -71 1 -9 -5 -18 -11 -20 -7 -3 -13 2 -13 11 0 10 -6 13 -15 10 -8 -4 -15 -12 -15 -20 0 -20 -20 -17 -21 4 -1 9 -4 4 -8 -13 -4 -21 -13 -31 -29 -33 -37 -6 -50 13 -44 63 3 30 1 45 -7 45 -6 0 -11 -17 -11 -39 0 -43 -16 -56 -53 -42 -52 20 -194 207 -231 305 -16 43 -17 50 -3 78 25 51 -3 79 -57 58 -26 -10 -26 -10 -21 -97 11 -170 15 -203 34 -258 23 -66 100 -172 171 -238 27 -25 50 -52 50 -60 0 -8 -7 -54 -16 -103 -8 -49 -13 -109 -10 -132 3 -24 1 -63 -5 -86 -10 -41 -11 -42 -71 -53 -80 -15 -162 -57 -193 -97 -28 -37 -44 -103 -37 -159 7 -59 17 -43 14 22 -6 100 35 157 143 199 28 11 68 23 90 26 l40 7 12 -88 c15 -110 6 -161 -46 -268 -45 -93 -77 -193 -87 -267 -9 -68 -19 -87 -43 -81 -19 5 -59 -13 -100 -45 l-23 -19 26 -52 c47 -93 123 -161 179 -161 38 0 47 17 32 60 -8 21 -15 68 -17 103 l-2 64 55 69 c85 105 133 173 170 238 l33 59 -12 81 c-9 58 -23 104 -52 161 -41 82 -63 175 -41 175 6 0 11 -15 11 -34 0 -41 17 -91 46 -136 41 -62 54 -142 64 -375 5 -121 15 -264 21 -318 11 -90 11 -98 -6 -111 -11 -8 -19 -30 -22 -63 -5 -45 -3 -52 17 -63 12 -7 57 -14 99 -17 60 -3 83 -1 111 14 52 27 52 57 -2 82 -52 24 -98 64 -98 85 0 9 18 84 39 168 22 84 49 204 62 267 20 104 21 120 9 190 -7 42 -14 87 -15 101 -1 14 -7 36 -13 50 -24 53 -62 154 -59 157 5 5 152 41 155 38 10 -9 -58 -246 -69 -239 -5 3 -6 -2 -3 -10 3 -9 8 -16 10 -16 15 0 90 267 79 279 -5 4 -88 -14 -162 -35 -13 -3 -23 -2 -23 2 0 5 42 19 93 31 57 14 135 44 207 79 170 84 260 182 260 283 0 21 1 21 368 24 281 2 234 3 -202 5 -432 1 -567 5 -558 14 8 8 149 11 536 10 321 -1 535 2 550 8 19 7 26 17 26 36 0 39 -128 763 -141 799 -18 49 -22 85 -12 108 35 78 50 142 34 151 -6 4 -11 18 -11 32 0 21 -4 24 -40 24 l-40 0 0 -54z m60 14 c0 -25 -4 -30 -25 -30 -20 0 -25 5 -25 23 0 28 7 37 32 37 13 0 18 -8 18 -30z m-41 -92 c-7 -18 -14 -40 -14 -48 0 -8 -10 -16 -22 -18 -32 -5 -29 16 9 66 36 47 47 47 27 0z m-478 -55 c8 -9 14 -39 14 -73 0 -34 6 -64 14 -74 20 -24 3 -37 -55 -44 -44 -5 -47 -3 -39 14 19 45 17 72 -4 83 -12 7 -21 8 -21 4 0 -4 -5 -2 -11 4 -8 8 -5 17 11 33 15 15 20 29 16 46 -6 22 -3 24 28 24 19 0 39 -7 47 -17z m487 -51 c2 -23 0 -30 -10 -27 -16 6 -20 67 -4 62 6 -2 12 -18 14 -35z m-36 -17 c-4 -59 -21 -147 -38 -204 -19 -66 -41 -72 -132 -39 -37 14 -75 28 -84 33 -16 6 -18 0 -18 -67 0 -88 18 -279 30 -325 7 -28 6 -33 -10 -33 -9 0 -53 -12 -96 -26 -60 -19 -94 -25 -140 -22 -121 7 -142 55 -79 177 19 37 35 75 35 84 0 24 -27 87 -37 87 -4 0 -16 -28 -26 -62 -10 -35 -39 -118 -64 -186 -41 -108 -49 -123 -67 -120 -13 2 -20 9 -17 18 1 8 7 60 11 115 20 234 73 382 159 441 30 20 37 22 44 9 19 -35 145 -6 131 30 -7 17 -3 17 89 6 46 -6 81 -18 107 -35 43 -28 81 -33 98 -13 9 10 32 78 58 165 2 7 14 12 26 10 20 -3 23 -8 20 -43z m-84 -56 l-11 -31 -91 6 c-154 10 -185 16 -197 37 -9 18 -4 19 150 19 l160 0 -11 -31z m120 14 c-5 -25 -28 -28 -28 -4 0 12 6 21 16 21 9 0 14 -7 12 -17z m28 -28 c2 -21 -2 -25 -27 -25 -16 0 -29 5 -29 10 0 6 5 10 11 10 6 0 17 7 25 15 19 19 19 19 20 -10z m-179 -52 c-15 -16 -19 -16 -49 -1 l-33 17 50 0 c46 1 48 0 32 -16z m193 6 c0 -6 29 -176 65 -377 36 -201 64 -371 61 -379 -4 -11 -101 -13 -531 -13 -523 0 -525 0 -513 20 13 20 24 20 506 20 385 0 494 3 497 13 3 6 -23 165 -58 352 -59 321 -64 340 -85 343 -40 6 -26 32 18 32 23 0 40 -5 40 -11z m-896 -61 c-116 -78 -137 -242 -46 -348 33 -39 34 -43 23 -79 -13 -43 -80 -125 -120 -146 l-28 -14 -52 282 c-29 155 -55 294 -58 310 l-5 27 167 0 167 0 -48 -32z m851 10 c5 -21 113 -614 118 -648 2 -13 -28 -15 -211 -18 l-213 -2 3 92 c3 88 4 93 26 96 26 4 25 2 12 73 -9 51 -31 341 -26 346 1 1 29 -9 62 -22 111 -46 164 -26 179 65 5 30 11 40 26 40 11 0 21 -9 24 -22z m-705 -3 c0 -3 -8 -22 -19 -43 -10 -20 -26 -63 -35 -94 -12 -41 -22 -58 -34 -58 -30 -1 -65 -26 -83 -61 l-17 -34 -11 28 c-44 113 56 260 182 266 9 1 17 -1 17 -4z m-860 -223 c0 -37 -54 -59 -66 -27 -11 27 4 45 36 45 22 0 30 -5 30 -18z m799 -26 c20 -23 -4 -56 -39 -56 -33 0 -50 31 -30 55 16 19 54 19 69 1z m-819 -49 c0 -30 71 -158 127 -227 78 -99 116 -130 158 -130 18 0 38 -7 45 -15 17 -21 46 -19 70 5 11 11 26 20 32 20 7 0 49 12 92 26 128 43 192 115 216 245 6 29 11 54 13 55 2 2 13 1 25 -3 20 -5 22 -11 22 -83 0 -170 -70 -288 -217 -370 -23 -13 -47 -35 -52 -49 -6 -14 -15 -88 -21 -163 -10 -149 -19 -178 -53 -178 -61 0 -202 22 -228 35 -47 25 -52 44 -34 142 25 147 24 157 -39 215 -71 65 -149 179 -170 248 -10 30 -20 97 -23 148 -6 89 -5 92 16 92 11 0 21 -6 21 -13z m937 -146 c-3 -15 -2 -32 4 -38 6 -6 7 -44 3 -96 l-7 -87 -100 0 -99 0 15 23 c8 12 20 21 25 20 6 -1 10 13 9 32 -1 39 5 48 27 43 13 -3 13 -9 -4 -46 -11 -24 -24 -41 -30 -37 -5 3 -10 1 -10 -4 0 -6 7 -11 15 -11 17 0 69 94 115 208 5 12 17 22 26 22 13 0 15 -6 11 -29z m303 -130 c0 -21 -6 -43 -12 -48 -7 -5 -61 -10 -120 -11 -99 -1 -108 0 -119 19 -6 12 -8 31 -5 43 5 22 10 23 78 19 46 -3 90 1 118 10 25 8 48 12 53 10 4 -2 7 -21 7 -42z m-206 -229 c-11 -64 -53 -128 -113 -173 -69 -52 -234 -131 -321 -153 -36 -10 -73 -20 -82 -22 -15 -4 -16 -1 -7 28 5 18 12 83 15 143 8 146 14 164 68 195 44 25 47 25 246 22 l201 -3 -7 -37z m-574 -418 c24 -24 78 -193 90 -279 11 -84 10 -98 -14 -215 -30 -143 -82 -349 -89 -357 -13 -13 -26 12 -32 60 -3 28 -10 131 -15 227 -11 224 -30 323 -79 425 -35 73 -58 155 -46 166 8 9 174 -16 185 -27z m-192 -186 c20 -41 33 -86 37 -128 l6 -65 -61 -95 c-59 -90 -133 -187 -155 -202 -44 -31 -10 149 53 283 48 102 59 135 67 216 4 35 10 61 14 58 5 -2 22 -33 39 -67z m-188 -551 c0 -5 -4 -17 -10 -27 -13 -24 -63 -13 -69 15 -5 28 24 45 54 31 14 -6 25 -15 25 -19z m-90 -5 c0 -35 16 -52 51 -52 24 0 27 -4 32 -52 3 -29 9 -62 13 -73 7 -19 7 -20 -13 -2 -12 10 -27 32 -33 48 -14 32 -20 35 -37 18 -9 -9 -19 1 -42 37 -37 57 -39 77 -8 92 33 16 37 14 37 -16z m-70 -25 c0 -8 14 -35 31 -61 24 -35 37 -46 51 -43 13 4 23 -3 34 -24 8 -17 26 -35 39 -41 49 -22 15 -49 -35 -28 -58 24 -160 160 -146 196 7 18 26 18 26 1z m550 -155 c0 -25 -35 -56 -55 -49 -15 6 -21 48 -8 60 3 4 19 7 35 7 21 0 28 -5 28 -18z m90 -81 c22 -9 18 -10 -24 -9 -32 2 -51 -2 -54 -10 -5 -15 -49 -16 -91 -1 -26 9 -30 15 -25 33 9 30 13 32 34 18 28 -17 44 -15 65 8 l18 20 26 -24 c14 -14 37 -30 51 -35z m-118 -46 c36 -6 49 -4 53 6 6 16 115 23 115 8 0 -17 -46 -38 -95 -44 -65 -8 -148 13 -153 38 -3 15 0 17 15 9 10 -6 39 -13 65 -17z"/> <path d="M1334 1944 c-22 -46 -37 -84 -32 -84 7 0 88 152 88 165 0 21 -21 -9 -56 -81z"/> <path d="M72 2706 c-29 -8 -55 -16 -59 -19 -9 -9 16 -64 60 -129 22 -33 43 -56 48 -51 6 6 49 188 49 209 0 7 -44 2 -98 -10z m74 -38 c-4 -24 -12 -68 -19 -98 l-12 -55 -47 80 c-26 43 -46 81 -44 83 4 3 99 28 120 31 4 1 5 -18 2 -41z"/> <path d="M458 2509 c-10 -5 -18 -20 -18 -32 0 -12 20 -137 45 -277 25 -140 45 -258 45 -262 0 -5 7 -8 15 -8 12 0 15 8 10 33 -2 17 -23 141 -46 275 -32 186 -39 246 -30 255 8 8 98 14 294 17 l282 6 -290 2 c-182 1 -296 -2 -307 -9z"/> <path d="M1408 2513 c34 -2 88 -2 120 0 31 2 3 3 -63 3 -66 0 -92 -1 -57 -3z"/> <path d="M1820 2329 c-1 -35 85 -509 92 -509 5 0 6 10 3 23 -2 12 -23 128 -46 257 -37 214 -49 268 -49 229z"/> <path d="M2051 2232 c-8 -76 -73 -593 -76 -609 -3 -13 -2 -23 3 -23 10 0 86 587 79 620 -2 14 -5 19 -6 12z"/> <path d="M1206 1498 c-4 -24 -21 -67 -37 -97 -17 -29 -29 -54 -27 -56 2 -2 27 -13 56 -24 60 -24 118 -28 105 -8 -4 6 -21 59 -38 116 -17 58 -36 106 -42 108 -6 2 -13 -16 -17 -39z m59 -115 c13 -40 19 -73 14 -73 -14 0 -119 41 -119 47 0 3 9 18 20 33 11 15 25 52 32 81 l12 53 10 -34 c5 -19 19 -68 31 -107z"/> <path d="M1040 1289 c-14 -12 -51 -34 -82 -50 -32 -16 -58 -34 -58 -41 0 -25 156 -202 170 -193 21 13 22 306 1 305 -3 -1 -17 -10 -31 -21z m24 -258 c-6 -6 -97 87 -133 137 l-22 31 48 25 c26 14 62 34 78 45 l30 21 3 -126 c1 -70 0 -129 -4 -133z"/> <path d="M1512 1230 c-12 -12 -22 -22 -22 -24 0 -2 -16 -90 -35 -197 -34 -190 -40 -238 -30 -227 5 4 75 389 75 409 0 3 6 14 14 25 13 17 31 20 193 25 l178 5 -176 2 c-164 2 -177 1 -197 -18z"/> <path d="M2877 1241 c29 -4 58 -12 65 -19 9 -9 -7 -116 -73 -493 -46 -265 -89 -488 -94 -496 -8 -11 -144 -13 -817 -13 -722 0 -808 -1 -822 -16 -22 -21 -20 -61 3 -74 13 -7 286 -10 815 -10 727 0 796 1 811 17 10 10 15 26 12 41 -3 18 2 31 19 46 21 19 31 63 104 481 44 253 82 470 85 482 10 41 -26 63 -97 62 l-63 -2 52 -6z m-118 -1055 c6 -7 9 -21 5 -30 -6 -15 -77 -16 -814 -16 -533 0 -811 3 -815 10 -3 6 -3 19 0 30 6 20 16 20 809 20 669 0 805 -2 815 -14z"/> <path d="M158 1027 c-23 -18 -44 -41 -46 -50 -7 -36 59 -102 134 -133 l37 -15 -6 44 c-4 25 -14 77 -23 116 -19 84 -30 88 -96 38z m90 -74 c11 -54 19 -99 17 -101 -15 -16 -150 99 -142 121 4 13 84 77 96 77 5 0 18 -44 29 -97z"/> </g> </svg> 