 <svg  version="1.0" xmlns="http://www.w3.org/2000/svg"  width="210.000000pt" height="58.000000pt" viewBox="0 0 210.000000 58.000000"  preserveAspectRatio="xMidYMid meet">  <g transform="translate(0.000000,58.000000) scale(0.100000,-0.100000)" fill="#cd2d2d" stroke="none"> <path d="M610 531 c-37 -12 -88 -39 -95 -51 -4 -6 8 -1 27 10 55 34 103 43 163 30 30 -6 64 -19 75 -28 18 -15 20 -21 11 -47 -11 -28 -10 -29 5 -10 36 46 35 50 -14 74 -50 25 -132 35 -172 22z"/> <path d="M974 526 c-23 -7 -57 -25 -76 -40 -68 -51 -115 -183 -89 -246 8 -21 10 -16 11 35 2 176 161 292 308 225 33 -15 42 -24 38 -37 -3 -10 -8 -31 -11 -48 l-6 -30 17 30 c9 17 23 38 32 48 14 16 14 19 -4 31 -27 21 -111 46 -148 45 -17 0 -50 -6 -72 -13z"/> <path d="M1354 526 c-61 -19 -107 -59 -140 -118 -58 -106 -30 -242 65 -315 41 -32 44 -33 117 -26 41 3 74 2 74 -3 0 -5 -23 -7 -51 -5 -36 2 -49 0 -45 -8 8 -12 57 -14 106 -5 23 5 28 9 18 16 -9 6 -6 7 9 3 12 -3 30 -2 40 4 46 26 46 26 18 67 -28 41 -36 47 -71 58 -16 5 -23 2 -27 -14 -7 -26 -70 -53 -107 -45 -40 9 -58 32 -39 50 12 12 20 13 46 3 44 -16 99 9 109 49 4 15 13 37 20 48 17 24 18 103 1 131 -7 12 -27 34 -45 49 -25 21 -36 25 -45 16 -6 -6 -21 -11 -33 -11 -24 0 -49 -32 -68 -88 -13 -37 -7 -91 16 -139 13 -27 4 -42 -38 -59 -46 -19 -64 -18 -64 7 0 11 -5 29 -11 41 -16 29 -13 99 6 144 49 119 185 178 299 130 37 -15 38 -18 33 -54 -6 -35 -5 -36 9 -17 36 47 35 50 -14 74 -57 28 -134 35 -188 17z m120 -125 c41 -36 -15 -201 -68 -201 -27 0 -45 23 -70 91 -21 54 -12 108 21 125 29 14 93 6 117 -15z m36 -261 c10 0 22 -4 25 -10 3 -6 -1 -7 -9 -4 -9 3 -16 1 -16 -5 0 -6 6 -11 13 -11 8 0 7 -4 -3 -10 -18 -12 -33 -13 -26 -2 2 4 -11 6 -30 4 -18 -2 -31 -8 -28 -13 3 -5 -1 -9 -9 -9 -26 0 -13 31 20 46 18 9 33 21 34 28 0 7 2 7 6 -1 2 -7 13 -13 23 -13z"/> <path d="M1337 354 c-11 -12 3 -24 29 -24 28 0 32 -21 8 -44 -17 -18 -11 -36 12 -36 8 0 12 5 9 10 -3 6 4 10 17 11 21 0 21 1 4 8 -14 5 -20 18 -20 42 -1 29 -5 34 -26 37 -14 2 -29 0 -33 -4z"/> <path d="M1431 351 c-17 -11 -5 -31 19 -31 24 0 36 20 19 31 -8 5 -16 9 -19 9 -3 0 -11 -4 -19 -9z"/> <path d="M1699 512 c-186 -97 -184 -353 3 -446 211 -106 439 126 330 335 -66 126 -212 175 -333 111z m159 -11 c9 -5 31 -15 47 -22 39 -17 75 -49 75 -66 0 -8 4 -12 9 -9 16 10 31 -45 31 -114 0 -83 -7 -105 -26 -89 -11 9 -14 7 -14 -13 0 -13 -12 -36 -27 -51 -33 -31 -102 -62 -114 -50 -9 9 10 86 30 121 8 16 18 21 29 17 14 -5 14 -4 -1 12 -15 17 -15 19 3 31 25 15 25 38 1 54 -10 6 -17 18 -14 25 4 9 0 11 -11 7 -14 -6 -21 5 -17 29 0 4 -17 7 -39 7 -31 0 -43 -5 -56 -26 -10 -14 -23 -23 -31 -20 -8 3 -11 1 -8 -5 4 -5 1 -17 -6 -25 -10 -12 -9 -20 2 -40 12 -23 11 -28 -6 -41 -20 -15 -20 -15 1 -9 17 5 25 0 37 -26 8 -18 18 -50 22 -70 7 -34 5 -38 -15 -38 -44 0 -120 59 -120 93 0 12 -5 17 -14 14 -18 -7 -26 21 -26 96 0 64 21 122 51 137 26 14 30 2 28 -95 -1 -47 1 -89 5 -92 3 -4 6 48 6 115 l0 122 28 5 c15 4 34 10 42 15 20 12 76 12 98 1z m-28 -161 c0 -27 3 -30 30 -30 20 0 30 -5 30 -15 0 -10 -10 -15 -30 -15 -28 0 -30 -3 -30 -35 0 -28 -4 -35 -20 -35 -16 0 -20 7 -20 35 0 32 -2 35 -30 35 -20 0 -30 5 -30 15 0 10 10 15 30 15 27 0 30 3 30 30 0 23 4 30 20 30 16 0 20 -7 20 -30z m11 -120 c17 19 24 24 15 10 -9 -13 -16 -33 -16 -43 0 -10 -7 -44 -16 -75 -19 -65 -24 -60 -46 47 -7 35 -18 66 -25 68 -7 3 -10 9 -7 15 3 5 19 -5 35 -24 l29 -33 31 35z"/> <path d="M1780 475 c-7 -8 -18 -15 -26 -15 -18 0 -27 -17 -29 -59 l-2 -36 15 38 15 38 55 -3 c53 -3 56 -4 68 -38 l12 -35 1 42 c1 34 -4 46 -25 62 -31 25 -67 27 -84 6z m75 -16 c5 -5 -2 -9 -17 -9 -35 0 -59 10 -52 21 6 10 54 1 69 -12z"/> <path d="M345 518 c11 -6 26 -18 33 -26 15 -20 16 -88 0 -98 -8 -5 -9 0 -5 15 8 31 -1 51 -24 51 -10 0 -19 4 -19 9 0 16 -58 33 -90 26 -33 -7 -70 -54 -70 -87 0 -15 -9 -18 -54 -18 -30 0 -58 -5 -61 -10 -13 -21 -17 -116 -6 -156 38 -141 203 -220 340 -162 30 13 56 28 58 34 2 6 -7 22 -20 35 -26 25 -47 102 -47 169 0 45 34 142 55 160 23 19 18 27 -28 49 -47 23 -101 31 -62 9z m-32 -89 c20 -5 37 -16 37 -24 0 -7 3 -20 6 -29 5 -12 0 -16 -20 -16 -16 0 -26 -6 -26 -15 0 -18 26 -20 33 -2 3 6 6 2 6 -9 1 -12 -6 -38 -14 -57 -17 -41 -18 -47 -7 -46 23 4 32 -5 41 -37 11 -40 6 -64 -15 -64 -18 0 -18 5 1 24 14 13 13 15 -4 13 -11 0 -17 -5 -14 -10 2 -4 -3 -19 -11 -32 -9 -14 -12 -25 -6 -25 5 0 10 6 11 13 0 9 2 9 5 0 4 -9 11 -9 30 -1 13 6 24 15 24 20 0 4 5 8 10 8 16 0 11 -36 -7 -51 -9 -8 -23 -14 -32 -14 -9 0 -22 -4 -29 -9 -7 -4 -19 -3 -28 5 -12 10 -13 9 -8 -5 5 -12 2 -15 -10 -10 -9 3 -13 10 -10 15 3 5 0 9 -5 9 -6 0 -9 10 -7 22 7 35 7 35 16 8 7 -22 8 -23 9 -4 1 12 8 27 16 34 8 7 15 23 15 36 0 14 6 24 15 24 8 0 12 6 9 14 -3 7 -11 13 -17 13 -51 -1 -80 6 -106 29 -34 28 -39 19 -16 -26 16 -32 34 -37 66 -20 25 14 25 1 -2 -52 -14 -27 -19 -51 -15 -69 5 -28 -6 -39 -19 -19 -4 6 -11 8 -16 5 -5 -4 -9 -1 -9 5 0 6 -5 8 -10 5 -16 -10 -24 23 -10 40 10 12 10 15 0 15 -8 0 -9 10 -5 30 8 35 -13 49 -48 32 -22 -11 -22 -11 3 -13 14 -1 29 -1 34 0 5 1 6 -5 2 -14 -3 -9 -6 -20 -6 -25 0 -5 -9 -8 -19 -7 -11 0 -18 4 -15 8 2 4 -3 12 -11 19 -13 11 -14 10 -9 -4 11 -28 -15 -17 -31 14 -19 37 -19 43 1 32 9 -5 29 -4 49 2 29 9 35 16 40 48 5 28 2 42 -9 54 -18 18 -21 44 -5 44 5 0 7 5 3 12 -4 7 -3 8 4 4 6 -4 9 -14 5 -24 -3 -9 6 -1 20 18 14 19 21 37 16 38 -6 2 -5 10 2 18 14 17 50 18 102 3z m-168 -122 c17 -50 9 -69 -28 -65 -30 3 -32 6 -35 46 -3 36 0 43 20 51 28 10 29 10 43 -32z"/> <path d="M225 370 c-6 -10 1 -14 42 -23 25 -6 40 18 17 27 -24 9 -52 7 -59 -4z"/> <path d="M128 479 c-26 -15 -43 -49 -24 -49 8 0 21 14 30 30 8 17 14 30 13 30 -1 0 -10 -5 -19 -11z"/> <path d="M550 442 c-43 -42 -58 -88 -59 -175 -1 -32 -8 -71 -16 -86 -13 -27 -13 -31 6 -55 11 -14 42 -38 67 -54 40 -23 58 -27 124 -27 42 0 79 3 83 7 11 11 -13 70 -40 98 l-25 26 20 59 c11 32 20 84 20 116 0 51 -4 63 -31 94 -26 29 -38 35 -71 35 -33 0 -47 -7 -78 -38z m26 -34 c-17 -49 -34 -74 -43 -65 -4 5 1 13 11 19 12 7 15 13 7 17 -8 5 -5 16 9 34 28 35 30 34 16 -5z m116 -5 c24 -21 23 -33 -2 -33 -13 0 -20 -7 -20 -19 0 -26 17 -36 35 -21 13 10 15 8 15 -14 0 -16 -5 -26 -15 -26 -8 0 -15 -4 -15 -9 0 -6 -17 -12 -37 -14 l-38 -4 43 -1 c45 -2 50 -8 29 -36 -11 -14 -21 -17 -46 -11 -55 12 -70 34 -60 91 4 27 8 54 8 60 2 19 42 54 63 54 12 0 30 -7 40 -17z m-144 -113 c-11 -33 -28 -49 -28 -28 0 13 27 58 35 58 2 0 -1 -14 -7 -30z m22 -59 c0 7 13 0 29 -15 17 -16 36 -26 44 -23 11 4 13 -5 9 -44 -3 -31 -1 -49 6 -49 6 0 12 10 14 22 3 21 4 21 15 -5 13 -27 12 -27 -27 -27 -22 0 -40 5 -40 11 0 6 -10 33 -21 60 -14 33 -25 47 -32 40 -6 -6 -1 -21 14 -42 16 -22 19 -34 11 -37 -7 -2 -10 -8 -6 -13 12 -20 -16 -8 -31 14 -12 17 -17 19 -24 9 -5 -9 -8 1 -8 27 0 23 4 41 8 41 5 0 9 10 9 21 0 18 2 19 15 9 12 -10 15 -10 15 1z"/> <path d="M614 361 c3 -5 -2 -12 -12 -16 -16 -6 -16 -7 2 -17 14 -8 22 -6 35 6 14 15 14 18 1 26 -19 12 -33 13 -26 1z"/> <path d="M990 469 c0 -5 -7 -9 -15 -9 -13 0 -21 -14 -13 -22 2 -2 -5 -14 -15 -28 -9 -13 -17 -32 -17 -42 0 -10 -4 -18 -10 -18 -14 0 -12 -32 5 -54 11 -14 11 -23 2 -39 -22 -38 -35 -47 -76 -49 -40 -1 -40 -1 -26 -27 18 -33 68 -91 62 -71 -3 8 -12 32 -21 53 -9 20 -12 37 -7 37 18 0 41 -44 41 -76 0 -30 24 -63 37 -51 3 4 -2 27 -11 52 -10 24 -17 47 -16 51 1 4 -4 11 -12 15 -9 6 -7 9 9 9 12 0 26 7 31 16 8 14 12 12 31 -14 12 -17 20 -34 19 -39 -12 -36 75 45 100 93 10 18 8 23 -14 33 -22 9 -24 9 -22 -7 2 -12 -3 -16 -17 -14 -30 5 -43 22 -17 22 12 0 22 5 22 10 0 11 -43 14 -53 4 -13 -13 14 -42 45 -48 l33 -7 -25 -19 c-33 -26 -38 -25 -46 6 -4 15 -12 23 -19 20 -19 -7 -28 68 -14 114 18 61 40 76 89 61 39 -11 60 -34 60 -64 0 -10 -7 -13 -19 -10 -24 6 -32 -17 -16 -48 12 -21 14 -22 20 -6 4 9 1 25 -6 35 -13 15 -12 16 3 3 15 -11 19 -11 23 0 4 11 2 55 -4 90 -4 25 -121 62 -121 38z"/> <path d="M998 353 c13 -3 26 -11 29 -19 7 -18 23 -18 23 0 0 16 -22 27 -53 25 -21 -2 -21 -2 1 -6z"/> <path d="M1131 270 c0 -40 6 -70 25 -110 l25 -55 -26 -22 c-32 -28 -21 -30 23 -3 l33 20 -24 33 c-32 42 -38 60 -47 132 l-7 60 -2 -55z"/> <path d="M971 133 c-1 -6 6 -18 14 -27 25 -24 19 -44 -12 -39 -25 4 -26 3 -9 -8 23 -14 146 -25 146 -13 0 6 -15 18 -32 28 -18 11 -43 28 -55 38 -12 11 -26 17 -31 14 -6 -3 -13 0 -15 6 -4 9 -6 9 -6 1z"/> </g> </svg> 