 <svg  version="1.0" xmlns="http://www.w3.org/2000/svg"  width="300.000000pt" height="299.000000pt" viewBox="0 0 300.000000 299.000000"  preserveAspectRatio="xMidYMid meet">  <g transform="translate(0.000000,299.000000) scale(0.100000,-0.100000)" fill="#680808" stroke="none"> <path d="M1486 2925 c-30 -121 -32 -117 93 -153 61 -18 117 -32 125 -32 18 0 31 22 56 95 14 42 16 57 7 69 -14 17 -165 71 -224 79 l-41 6 -16 -64z m167 14 l86 -31 -45 -24 c-25 -13 -54 -24 -65 -24 -21 0 -61 35 -91 80 -9 14 -17 20 -17 14 -1 -6 10 -27 22 -46 l24 -34 -40 -22 c-22 -12 -42 -20 -45 -18 -2 3 1 19 7 37 6 18 11 42 11 53 0 54 36 58 153 15z m107 -56 c0 -4 -10 -33 -22 -65 -23 -58 -38 -74 -38 -40 0 9 -7 30 -15 46 -9 16 -14 30 -13 31 2 1 17 10 33 18 32 17 55 21 55 10z m-121 -40 c15 3 23 -5 37 -34 9 -22 14 -42 11 -46 -6 -6 -147 31 -175 46 -9 5 -1 15 25 32 34 23 40 24 61 11 12 -8 31 -12 41 -9z"/> <path d="M1873 2960 c-18 -28 -17 -147 1 -147 17 0 50 102 44 137 -4 31 -29 37 -45 10z"/> <path d="M635 2821 c-66 -27 -79 -105 -27 -152 61 -55 150 -29 165 48 14 74 -65 133 -138 104z m104 -37 c29 -37 26 -70 -9 -106 -26 -25 -36 -29 -62 -24 -111 22 -99 156 13 156 29 0 42 -6 58 -26z"/> <path d="M613 2762 c-8 -8 -12 -21 -9 -29 3 -8 6 -16 6 -19 0 -2 18 -13 39 -24 l40 -20 26 32 c14 17 25 40 23 52 -3 18 -10 21 -57 21 -34 1 -59 -5 -68 -13z m114 -8 c2 -7 -7 -24 -20 -39 -23 -27 -24 -27 -55 -11 -20 10 -32 24 -32 36 0 25 35 27 45 3 6 -16 8 -15 16 5 9 24 39 27 46 6z"/> <path d="M1860 2785 c-17 -21 -8 -50 17 -53 30 -4 49 31 27 52 -19 20 -28 20 -44 1z"/> <path d="M2286 2716 c-3 -14 -14 -27 -25 -31 -38 -12 -49 -37 -53 -125 l-3 -84 30 -11 c17 -5 36 -16 43 -22 17 -16 29 -16 39 0 4 7 21 17 38 22 28 10 29 13 26 58 -2 41 1 51 23 68 30 24 35 69 10 93 -17 18 -50 21 -59 6 -12 -20 -25 -9 -25 20 0 38 -35 43 -44 6z m44 -46 c13 -7 21 -7 25 0 3 5 17 10 30 10 29 0 45 -41 25 -65 -14 -17 -46 -20 -55 -4 -4 6 -1 10 6 8 31 -4 49 2 49 15 0 21 -21 31 -31 15 -6 -9 -9 -10 -9 -2 0 6 -9 11 -20 10 -26 -2 -27 -41 -2 -62 12 -11 17 -29 17 -63 -1 -45 -2 -47 -37 -55 -22 -5 -51 -4 -77 3 -38 10 -40 13 -30 32 6 12 9 39 6 62 -6 51 2 74 34 92 29 16 44 17 69 4z"/> <path d="M2256 2639 c-9 -13 -16 -30 -16 -39 1 -8 7 -3 16 13 8 15 17 27 20 27 2 0 0 -9 -6 -20 -6 -11 -7 -20 -2 -20 13 0 21 35 12 50 -5 8 -12 5 -24 -11z"/> <path d="M1530 2659 c-135 -5 -353 -13 -485 -17 -269 -9 -289 -14 -320 -79 -20 -42 -25 42 70 -1178 42 -529 54 -688 86 -1110 10 -140 26 -198 56 -209 8 -3 20 -3 25 1 7 3 8 1 4 -5 -5 -8 1 -12 16 -12 32 0 6 -17 -50 -31 -77 -20 -37 -20 84 0 134 22 317 42 378 40 55 -2 34 -5 -109 -18 -195 -19 -227 -22 -222 -27 2 -2 129 5 281 16 152 11 281 18 286 15 5 -3 11 -1 15 5 4 6 60 10 141 10 76 0 134 4 134 9 0 6 -15 12 -32 14 -18 2 21 5 87 7 66 1 112 4 103 7 -25 6 -22 20 5 27 36 9 57 56 57 128 0 34 -9 242 -21 460 l-22 397 26 30 c14 18 29 50 32 74 6 38 -7 144 -22 183 -4 10 2 14 20 14 52 0 67 46 39 120 -8 21 -5 29 20 52 39 37 32 53 -23 53 l-44 0 -3 43 c-3 34 -7 42 -23 42 -10 0 -19 4 -19 9 0 4 44 -5 98 -20 53 -16 116 -31 138 -35 41 -6 42 -5 49 28 23 102 0 290 -48 387 -36 73 -46 73 -124 5 -37 -32 -87 -78 -111 -101 -23 -24 -45 -43 -47 -43 -3 0 -5 64 -6 143 0 78 -4 214 -8 303 -8 187 -14 203 -94 239 -68 31 -125 34 -417 24z m450 -66 c30 -27 33 -36 41 -114 4 -46 8 -149 9 -229 1 -80 5 -185 8 -233 l7 -88 -37 -11 c-21 -6 -40 -9 -42 -7 -2 2 -8 107 -12 232 l-7 229 -271 -7 c-149 -4 -377 -10 -506 -14 l-235 -6 3 -50 c11 -180 141 -1847 144 -1850 5 -5 763 24 853 33 l70 7 0 115 c0 63 -3 206 -7 317 l-8 202 30 -11 c17 -5 37 -8 44 -5 18 7 19 -8 46 -515 25 -461 29 -443 -105 -467 -33 -5 -202 -19 -375 -30 -173 -12 -367 -26 -430 -32 -123 -11 -151 -7 -184 29 -23 26 -19 -9 -70 650 -23 299 -44 541 -46 539 -3 -3 -6 45 -7 106 -2 61 -12 216 -23 344 -11 127 -20 253 -20 278 0 32 -3 44 -12 39 -7 -5 -8 -3 -3 6 4 7 -1 113 -11 236 -19 243 -18 263 29 298 27 20 42 21 295 24 147 1 278 3 292 5 14 1 134 4 267 5 l241 3 32 -28z m-42 -415 c1 -95 5 -196 8 -225 5 -46 4 -52 -15 -58 -12 -3 -21 -15 -21 -25 0 -11 -10 -20 -25 -24 -30 -8 -33 -41 -10 -86 13 -26 18 -28 40 -20 23 9 25 6 34 -28 5 -20 11 -126 14 -234 l6 -197 -58 57 c-87 86 -156 124 -241 130 -64 4 -68 6 -59 23 5 10 34 37 63 59 64 49 86 94 86 179 0 59 -27 153 -54 193 -9 12 -16 37 -16 54 0 17 -9 43 -20 57 l-21 26 40 21 c22 11 48 20 56 20 28 0 11 24 -36 50 -52 29 -164 44 -192 24 -15 -10 -7 -12 50 -10 45 1 84 -5 116 -17 43 -17 63 -37 36 -37 -6 0 -37 -16 -70 -36 -52 -33 -63 -36 -106 -30 -47 5 -48 5 -18 -9 17 -8 44 -14 60 -15 l30 -1 -35 -18 c-51 -27 -98 -35 -115 -21 -10 8 -15 9 -15 2 0 -6 12 -18 27 -25 26 -14 26 -15 5 -21 -12 -4 -26 -4 -32 -1 -6 4 -10 -11 -10 -37 0 -24 -7 -68 -15 -98 -8 -30 -15 -67 -15 -82 0 -33 -9 -35 -34 -7 -13 16 -26 20 -54 17 -20 -3 -44 -8 -52 -12 -11 -5 -25 9 -50 50 -27 45 -35 70 -38 119 -2 36 1 71 7 84 8 14 8 21 1 21 -17 0 -11 41 12 78 19 31 99 92 120 92 5 0 5 -12 2 -27 -6 -26 -2 -23 49 25 67 62 109 82 175 82 61 0 72 -10 31 -27 -18 -7 -30 -15 -27 -18 7 -7 98 25 98 35 0 17 -99 30 -147 20 -57 -13 -74 -22 -126 -68 -23 -20 -36 -30 -29 -22 23 26 12 29 -35 9 -61 -26 -110 -63 -133 -102 -15 -24 -19 -51 -19 -119 0 -98 13 -146 59 -212 18 -26 30 -57 30 -76 0 -20 9 -40 25 -56 22 -22 33 -25 75 -22 47 3 49 2 66 -32 9 -19 22 -52 29 -72 13 -34 12 -38 -8 -51 -127 -83 -251 -248 -245 -326 1 -14 -4 -42 -10 -61 -21 -65 -42 -212 -42 -300 0 -55 -6 -101 -15 -123 -17 -42 -20 -119 -5 -148 9 -16 7 -19 -9 -19 -17 0 -20 9 -25 73 -3 39 -33 439 -66 887 -34 448 -64 839 -67 868 l-6 52 59 1 c33 1 253 6 489 13 237 6 432 11 435 10 3 -1 6 -80 8 -176z m382 -89 c49 -94 73 -274 51 -372 -6 -27 -7 -26 -38 36 l-32 65 29 12 c35 14 42 32 34 79 -9 48 -31 71 -67 71 l-30 0 6 65 c9 98 17 105 47 44z m-61 -29 c-20 -92 10 -232 70 -330 11 -19 21 -38 21 -41 0 -11 -243 59 -252 73 -4 7 -18 44 -30 83 l-21 69 108 104 c59 56 109 101 111 99 3 -2 -1 -28 -7 -57z m-595 -44 c24 -50 20 -59 -14 -35 -23 17 -27 26 -19 36 9 10 7 13 -7 13 -16 0 -17 2 -4 10 23 15 26 13 44 -24z m-29 -37 c4 -5 0 -18 -8 -27 -22 -25 -31 -77 -15 -90 7 -6 34 -12 58 -14 32 -2 46 -8 48 -20 4 -20 -35 -58 -60 -58 -11 0 -17 -4 -13 -9 10 -17 65 9 79 37 13 26 14 24 21 -40 11 -102 -8 -142 -98 -211 -40 -30 -61 -63 -72 -114 -4 -21 -3 -33 4 -33 6 0 11 9 11 20 0 22 7 25 29 11 21 -13 6 -27 -43 -40 -68 -17 -126 -15 -126 5 0 10 5 14 15 10 13 -5 15 1 9 32 -7 41 -43 126 -67 157 -13 16 -18 18 -28 8 -14 -14 -47 -17 -74 -7 -26 10 -46 59 -36 88 15 38 46 42 90 12 46 -32 61 -33 61 -3 0 13 9 57 20 98 11 41 20 86 20 100 0 22 7 28 43 39 31 10 37 15 22 18 -15 3 -9 9 25 22 53 21 76 24 85 9z m677 -27 c-1 -7 3 -33 8 -59 9 -36 8 -48 -2 -55 -22 -13 -25 -10 -37 49 -16 79 -15 85 12 81 12 -2 21 -9 19 -16z m-617 -39 c14 -21 25 -40 25 -43 0 -3 -16 -6 -35 -7 -22 -1 -35 3 -35 11 0 21 12 27 29 13 14 -11 14 -10 2 6 -18 23 -34 17 -41 -14 -6 -24 -6 -24 -18 -3 -10 18 -8 26 13 48 13 14 26 26 29 26 3 0 17 -17 31 -37z m654 -16 c0 -33 -2 -38 -9 -22 -12 28 -12 78 0 70 6 -3 10 -25 9 -48z m-305 -28 c4 -22 15 -58 26 -79 l20 -38 -47 -16 c-76 -26 -80 -24 -103 50 -11 36 -20 72 -20 80 0 7 19 18 43 24 23 6 47 13 52 15 20 7 23 4 29 -36z m-122 -84 c5 -43 -26 -46 -41 -4 -15 42 -14 47 7 51 20 5 29 -8 34 -47z m206 -239 c-2 -1 -17 -8 -35 -18 l-32 -16 -10 29 c-9 27 -8 31 13 39 28 10 38 33 30 66 -7 26 -24 30 -56 13 -22 -12 -32 -5 -42 26 -5 17 2 22 42 35 l47 15 23 -94 c12 -52 21 -94 20 -95z m-145 94 c-5 -31 -4 -33 8 -18 8 9 31 20 52 24 38 6 39 6 35 -22 -3 -25 -8 -30 -43 -35 -30 -4 -36 -7 -22 -13 12 -6 17 -20 17 -49 l0 -42 -24 25 c-22 22 -26 37 -31 115 -3 60 -2 83 4 70 5 -11 7 -36 4 -55z m147 18 c0 -49 -5 -47 -14 5 -4 23 -3 37 4 37 5 0 10 -19 10 -42z m90 -42 c0 -28 -71 -59 -85 -36 -9 15 11 38 38 43 41 8 47 7 47 -7z m-42 -84 c7 -21 -46 -64 -76 -60 -38 4 -34 25 13 52 42 25 56 27 63 8z m-144 -77 c8 -27 8 -149 0 -169 -3 -9 -17 -16 -30 -16 -24 0 -24 0 -24 120 l0 121 24 -18 c14 -10 27 -27 30 -38z m35 -7 c8 -16 22 -28 31 -28 12 0 19 -16 28 -64 19 -100 16 -158 -11 -197 -30 -45 -68 -49 -146 -14 -56 26 -59 28 -51 53 5 15 11 40 15 55 6 28 6 28 31 12 33 -22 65 -16 82 15 12 24 11 113 -3 205 -3 21 -2 24 3 10 4 -11 14 -32 21 -47z m111 17 c-7 -8 -27 -15 -44 -15 l-31 1 33 14 c18 8 35 22 39 32 7 17 8 17 11 0 2 -10 -2 -24 -8 -32z m-522 -32 c-4 -37 -46 -65 -104 -69 -27 -1 -38 -1 -24 2 87 17 133 51 110 79 -10 12 -10 15 4 15 13 0 16 -7 14 -27z m117 -11 c17 -9 56 -36 88 -60 45 -36 57 -51 57 -73 0 -39 -22 -129 -32 -129 -4 0 -26 12 -47 28 -34 23 -41 34 -46 72 -12 95 -16 110 -27 110 -6 0 -7 -7 -3 -17 17 -39 17 -346 1 -487 -13 -111 -14 -141 -4 -147 20 -12 -53 -38 -135 -49 -46 -6 -99 -5 -143 1 -96 13 -107 17 -98 37 38 90 46 285 15 411 -10 41 -20 70 -23 65 -2 -5 -13 -37 -23 -71 -20 -69 -29 -74 -88 -49 -72 31 -73 35 -37 107 18 35 50 86 71 113 l39 49 24 -54 c14 -30 25 -45 25 -34 0 11 -8 36 -19 55 l-18 35 25 27 c24 25 25 26 43 8 60 -60 260 -10 260 65 0 22 2 23 33 13 17 -6 46 -18 62 -26z m-922 -172 c3 -34 2 -47 -3 -35 -8 19 -14 103 -6 94 2 -2 6 -29 9 -59z m1046 -102 c6 10 16 9 43 -8 l35 -20 7 -283 c4 -155 9 -294 12 -309 5 -25 3 -27 -38 -32 -24 -3 -83 -8 -132 -12 l-89 -6 7 103 c4 62 12 107 19 111 7 4 12 31 13 60 0 29 7 141 14 249 l14 196 44 -31 c32 -23 45 -27 51 -18z m-499 -102 c10 -67 10 -107 1 -192 -7 -59 -17 -116 -22 -126 -6 -10 -9 -26 -7 -36 1 -9 -9 -65 -22 -124 -23 -103 -25 -108 -49 -108 -25 0 -26 2 -23 55 3 42 -1 63 -18 93 l-22 40 26 133 c14 74 31 159 37 191 8 41 17 58 30 61 12 3 23 21 31 51 7 25 15 46 19 46 4 0 13 -38 19 -84z m-127 -2 c23 -5 27 -11 22 -28 -3 -11 -15 -68 -25 -126 -11 -58 -27 -138 -36 -178 -15 -66 -15 -75 -1 -90 27 -29 39 -75 32 -119 -6 -42 -25 -60 -25 -25 -1 19 -29 72 -31 57 0 -5 0 -25 1 -42 2 -36 -13 -43 -29 -15 -10 16 -10 15 -11 -3 -1 -11 -4 -14 -7 -7 -2 6 -11 12 -19 12 -7 0 -16 11 -20 25 -7 27 13 122 27 131 5 3 9 55 9 116 0 98 28 290 47 321 3 4 12 2 21 -7 10 -8 30 -18 45 -22z m106 -448 c-7 -31 -14 -54 -16 -52 -3 3 1 30 8 60 7 31 14 54 16 52 3 -3 -1 -30 -8 -60z m71 45 l25 -8 -44 -42 c-24 -23 -45 -41 -46 -39 -2 2 2 24 8 51 11 48 14 50 57 38z m277 -72 c-3 -44 -7 -82 -9 -83 -10 -9 -108 -14 -103 -6 4 6 15 10 26 10 14 0 19 7 19 29 0 65 13 120 29 124 43 12 44 11 38 -74z m-112 -1 c-5 -40 -3 -58 4 -58 7 0 11 23 11 60 0 42 4 60 13 60 9 0 12 -13 9 -42 -5 -74 -11 -88 -35 -88 -12 0 -29 -5 -37 -10 -13 -8 -12 -10 5 -12 11 -1 -34 -4 -100 -8 -66 -3 -121 -5 -122 -4 -1 0 2 16 7 35 6 22 21 41 40 52 17 10 40 31 52 47 20 28 25 29 90 27 l69 -2 -6 -57z m-698 -130 c-2 -24 -4 -5 -4 42 0 47 2 66 4 43 2 -24 2 -62 0 -85z m766 -365 c-18 -2 -48 -2 -65 0 -18 2 -4 4 32 4 36 0 50 -2 33 -4z m-140 -10 c-18 -2 -48 -2 -65 0 -18 2 -4 4 32 4 36 0 50 -2 33 -4z"/> <path d="M1363 2501 c-100 -4 -184 -9 -187 -12 -15 -15 8 -39 38 -39 71 0 469 20 473 23 2 2 1 12 -3 21 -5 13 -19 16 -73 14 -36 -1 -148 -4 -248 -7z m307 -10 c0 -4 -71 -11 -157 -15 -87 -3 -195 -9 -240 -12 -58 -5 -83 -3 -83 5 0 7 25 11 68 12 73 2 366 14 395 17 9 1 17 -2 17 -7z"/> <path d="M1537 340 c-48 -38 -44 -130 7 -165 45 -32 126 -7 144 44 13 37 -1 94 -29 122 -26 26 -88 25 -122 -1z m97 -1 c26 -12 46 -54 46 -95 0 -37 -34 -64 -80 -64 -52 0 -80 27 -80 76 0 74 51 111 114 83z"/> <path d="M1567 313 c-27 -4 -28 -6 -21 -51 3 -26 8 -50 10 -54 5 -8 86 2 98 13 5 4 5 28 2 53 -8 50 -10 51 -89 39z m77 -45 c8 -39 6 -40 -41 -42 -37 -1 -38 0 -41 37 l-3 37 39 0 c36 0 40 -3 46 -32z"/> <path d="M1487 1892 c-18 -20 -23 -62 -7 -62 6 0 10 6 10 13 0 21 37 50 55 43 11 -4 15 -2 13 6 -7 21 -52 21 -71 0z"/> <path d="M1505 1829 c-4 -12 -2 -26 4 -32 8 -8 11 -4 11 16 0 28 15 37 23 15 2 -7 8 -10 12 -6 11 10 -4 28 -25 28 -10 0 -22 -9 -25 -21z"/> <path d="M1661 1718 c-29 -15 -64 -28 -77 -28 -33 0 -37 -14 -11 -37 31 -29 59 -35 93 -23 40 16 76 51 65 64 -5 6 -11 20 -13 32 -3 20 -4 20 -57 -8z m20 -29 c-14 -11 -38 -19 -60 -19 l-36 1 35 12 c19 7 44 18 55 24 29 17 34 4 6 -18z"/> <path d="M1306 1681 c-8 -12 4 -42 14 -36 4 3 10 -2 14 -10 3 -8 10 -15 16 -15 7 0 8 5 3 13 -4 6 -8 21 -8 32 0 21 -29 33 -39 16z"/> <path d="M2544 2585 c0 -29 4 -51 8 -49 11 7 10 91 -1 98 -4 3 -8 -19 -7 -49z"/> <path d="M2080 2611 c-13 -24 -13 -71 -1 -71 6 0 9 8 9 18 0 9 3 29 7 45 8 31 0 36 -15 8z"/> <path d="M2489 2626 c-2 -3 -3 -25 -1 -50 4 -51 22 -53 22 -3 0 31 -12 62 -21 53z"/> <path d="M2147 2613 c-10 -9 -9 -101 1 -107 4 -2 7 22 7 55 0 32 0 59 -1 59 0 0 -4 -3 -7 -7z"/> <path d="M229 2563 c-48 -27 -98 -58 -113 -70 l-27 -21 48 -69 c26 -37 52 -71 57 -75 6 -4 24 1 41 11 198 121 187 112 180 140 -11 46 -61 126 -81 129 -11 1 -58 -19 -105 -45z m69 -26 c-6 -28 -18 -53 -31 -62 -22 -15 -83 -18 -126 -6 -22 6 -23 7 -6 21 17 14 168 98 172 96 1 -1 -3 -23 -9 -49z m75 -3 c16 -31 26 -58 24 -60 -10 -10 -87 33 -87 48 0 24 18 68 28 68 4 0 20 -25 35 -56z m-4 -69 c24 -12 24 -12 -25 -40 -27 -16 -69 -42 -93 -59 -30 -19 -42 -24 -38 -13 3 8 9 32 13 52 4 24 14 39 28 45 12 4 28 15 35 24 14 17 34 15 80 -9z m-185 -21 c33 -6 35 -9 29 -33 -16 -66 -17 -67 -56 -12 -40 56 -44 66 -23 58 8 -3 31 -9 50 -13z"/> <path d="M2730 2449 c-85 -33 -76 -149 14 -179 106 -35 173 116 77 173 -32 19 -54 20 -91 6z m97 -31 c49 -46 14 -138 -52 -138 -19 0 -43 9 -56 21 -21 18 -21 20 -4 13 11 -4 36 -9 56 -12 32 -3 37 -1 48 26 15 35 8 52 -20 52 -14 0 -19 7 -19 25 0 31 -9 31 -39 0 -35 -38 -69 -31 -38 7 26 34 91 37 124 6z m-62 -28 c-5 -16 -2 -20 18 -20 26 0 29 -11 10 -44 -10 -19 -13 -19 -59 -4 -31 10 -50 22 -52 33 -3 14 1 17 20 13 16 -3 30 3 43 19 25 28 28 29 20 3z"/> <path d="M2434 2259 c-42 -55 -74 -103 -71 -105 5 -6 145 168 153 191 13 33 -9 10 -82 -86z"/> <path d="M484 2220 c-51 -20 -70 -95 -36 -136 50 -62 134 -59 167 6 23 44 19 78 -14 111 -31 30 -73 37 -117 19z m109 -32 c35 -42 14 -119 -38 -132 -26 -7 -110 23 -88 31 7 2 21 0 32 -6 31 -17 59 -13 75 11 23 33 20 57 -9 64 -16 4 -25 13 -25 25 0 25 -10 24 -39 -6 -27 -29 -54 -33 -49 -7 4 24 67 54 98 47 14 -3 33 -15 43 -27z m-66 -22 c-4 -9 3 -18 17 -23 20 -7 22 -12 15 -32 -9 -21 -13 -23 -57 -16 -43 6 -61 18 -62 38 0 4 11 7 23 7 13 0 32 9 42 20 21 24 29 26 22 6z"/> <path d="M2575 2198 c-95 -68 -136 -100 -131 -105 5 -5 176 114 176 123 0 9 -16 3 -45 -18z"/> <path d="M2570 2028 c-114 -20 -128 -24 -119 -33 8 -7 253 35 264 46 12 12 -9 10 -145 -13z"/> <path d="M197 2034 c-15 -16 -6 -72 18 -104 14 -19 25 -40 25 -48 0 -7 6 -12 13 -9 17 6 10 83 -11 126 -17 35 -33 47 -45 35z"/> <path d="M523 1860 c-60 -36 -70 -94 -24 -140 36 -36 73 -46 112 -30 56 24 77 106 38 149 -21 22 -59 41 -82 41 -7 0 -26 -9 -44 -20z m98 -13 c43 -33 46 -81 6 -124 -45 -50 -140 -11 -140 57 0 61 86 104 134 67z"/> <path d="M576 1822 c-3 -5 -18 -7 -34 -4 -58 8 -55 -55 4 -83 34 -16 37 -16 56 2 27 24 38 54 26 76 -9 18 -43 23 -52 9z m44 -31 c0 -10 -9 -26 -20 -36 -17 -15 -24 -16 -49 -5 -30 12 -46 34 -35 51 8 14 34 11 40 -5 4 -12 9 -11 25 5 22 22 39 17 39 -10z"/> <path d="M2465 1870 c-4 -6 39 -10 122 -9 81 1 117 4 98 9 -45 12 -213 12 -220 0z"/> <path d="M270 1849 c-9 -15 -8 -24 1 -35 26 -32 69 -1 49 35 -6 12 -17 21 -25 21 -8 0 -19 -9 -25 -21z"/> <path d="M2850 1818 c-68 -46 -59 -133 17 -164 66 -28 133 13 133 81 0 47 -14 71 -50 90 -40 21 -61 19 -100 -7z m115 -23 c16 -15 25 -36 25 -55 0 -38 -39 -80 -75 -80 -40 0 -84 27 -91 57 -21 81 82 138 141 78z"/> <path d="M2906 1782 c-3 -5 -18 -7 -35 -4 -23 3 -30 0 -36 -17 -8 -26 7 -46 48 -67 37 -19 48 -15 72 29 16 30 17 38 6 51 -14 17 -46 21 -55 8z m41 -45 c-24 -36 -42 -42 -71 -24 -28 19 -35 57 -11 57 9 0 18 -7 21 -15 8 -19 24 -20 24 -1 0 19 22 26 38 13 10 -8 10 -14 -1 -30z"/> <path d="M2466 1761 c11 -10 157 -66 199 -75 57 -14 11 11 -89 48 -101 37 -128 43 -110 27z"/> <path d="M48 1644 c-57 -30 -65 -98 -19 -145 76 -75 201 4 161 102 -22 53 -88 73 -142 43z m109 -26 c32 -30 31 -81 -3 -115 -21 -21 -32 -24 -62 -20 -19 4 -43 14 -51 23 -15 15 -14 16 4 9 11 -4 34 -10 52 -13 25 -3 34 1 47 21 19 29 12 57 -15 57 -14 0 -19 7 -19 25 0 31 -9 31 -39 0 -29 -31 -67 -35 -51 -5 24 45 98 55 137 18z m-59 -20 c-2 -15 3 -24 17 -27 23 -7 25 -17 9 -44 -10 -17 -14 -18 -60 -4 -54 16 -75 47 -30 47 15 0 32 10 43 25 22 30 25 31 21 3z"/> <path d="M2420 1643 c0 -5 34 -44 76 -88 91 -97 94 -81 4 21 -61 68 -80 84 -80 67z"/> <path d="M344 1576 c-42 -42 -45 -82 -9 -124 30 -36 66 -47 110 -32 40 13 65 48 65 90 0 42 -15 67 -50 85 -46 24 -78 19 -116 -19z m131 -11 c32 -31 32 -66 -1 -104 -49 -59 -144 -28 -144 47 0 76 91 112 145 57z"/> <path d="M380 1567 c-20 -10 -25 -20 -25 -52 0 -27 4 -39 13 -37 6 1 11 -4 10 -10 -5 -23 59 -21 81 1 26 26 27 52 4 79 -24 27 -53 34 -83 19z m76 -32 c15 -23 15 -27 1 -49 -10 -15 -25 -23 -40 -22 -28 1 -32 26 -5 26 11 0 16 -4 13 -10 -3 -5 -2 -10 4 -10 15 0 26 49 13 62 -6 6 -12 6 -16 -1 -4 -6 -2 -11 4 -11 6 0 8 -5 4 -11 -3 -6 -19 -9 -35 -7 -16 3 -31 0 -33 -6 -2 -6 -5 0 -5 15 -1 32 16 49 51 49 18 0 33 -8 44 -25z"/> <path d="M2713 1510 c-4 -25 -7 -67 -7 -94 l-1 -49 75 -13 c41 -7 94 -18 118 -25 56 -15 66 -6 88 84 15 59 15 70 3 82 -16 15 -213 66 -246 63 -18 -2 -24 -10 -30 -48z m165 7 l84 -23 -41 -27 c-59 -40 -87 -36 -138 19 -47 51 -60 44 -14 -8 l28 -32 -41 -27 c-22 -15 -42 -27 -43 -25 -4 3 17 128 23 138 9 14 55 9 142 -15z m99 -74 c-3 -21 -10 -51 -17 -68 l-12 -30 -23 45 -23 45 31 22 c43 32 50 29 44 -14z m-110 -20 c20 4 27 -2 44 -35 11 -22 19 -42 17 -44 -7 -7 -193 32 -191 40 1 5 17 18 35 31 25 17 37 20 52 13 10 -5 29 -8 43 -5z"/> <path d="M573 1365 c-101 -43 -73 -185 37 -185 84 0 131 93 78 155 -31 34 -76 46 -115 30z m85 -21 c53 -37 47 -110 -10 -140 -88 -45 -163 61 -93 131 28 29 70 32 103 9z"/> <path d="M574 1333 c-23 -17 -34 -51 -24 -77 21 -56 96 -57 122 -1 10 22 8 30 -9 53 -20 27 -67 40 -89 25z m64 -19 c24 -16 30 -58 10 -70 -7 -4 -24 -8 -38 -8 -38 0 -50 11 -50 44 0 45 38 62 78 34z"/> <path d="M624 1285 c5 -15 -4 -19 -36 -16 -10 1 -18 -2 -18 -7 0 -17 12 -21 36 -12 17 7 24 6 24 -3 0 -7 5 -5 10 5 11 18 3 48 -12 48 -6 0 -8 -7 -4 -15z"/> <path d="M124 1356 c-66 -29 -85 -103 -38 -149 50 -50 124 -44 157 12 33 56 13 111 -49 137 -39 16 -32 16 -70 0z m90 -27 c19 -15 26 -29 26 -57 0 -79 -83 -110 -141 -53 -33 33 -36 56 -13 89 31 44 87 53 128 21z"/> <path d="M166 1313 c-4 -4 -22 -8 -39 -8 -29 0 -32 -3 -32 -30 0 -24 7 -34 37 -50 l37 -20 26 25 c32 30 32 83 0 88 -12 2 -24 -1 -29 -5z m-25 -29 c11 -14 13 -14 21 0 11 20 48 21 48 2 0 -7 -9 -25 -21 -40 -19 -25 -22 -25 -49 -11 -34 18 -44 31 -36 50 7 19 20 19 37 -1z"/> <path d="M2355 1319 c-57 -51 -47 -127 22 -155 46 -20 86 -10 118 28 36 42 33 82 -9 124 -44 44 -82 45 -131 3z m125 -14 c33 -35 31 -81 -4 -112 -48 -41 -114 -26 -135 30 -31 80 80 145 139 82z"/> <path d="M2364 1285 c-14 -21 -14 -30 -4 -55 21 -50 79 -54 112 -9 17 23 18 30 8 50 -17 32 -29 39 -67 39 -24 0 -37 -7 -49 -25z m87 5 c22 -12 26 -64 7 -77 -18 -11 -61 -12 -75 0 -16 12 -17 59 -1 75 15 15 43 15 69 2z"/> <path d="M2382 1231 c2 -8 9 -16 17 -19 8 -3 11 0 7 7 -5 7 1 11 14 11 12 0 18 -4 15 -10 -3 -5 -2 -10 3 -10 8 0 22 22 22 34 0 1 -18 2 -40 1 -29 0 -40 -4 -38 -14z"/> <path d="M2690 1129 c-87 -35 -89 -140 -3 -176 66 -27 133 15 133 82 0 47 -14 71 -50 90 -33 17 -45 18 -80 4z m97 -35 c49 -49 10 -134 -61 -134 -29 1 -66 19 -66 34 0 4 9 2 19 -4 11 -5 35 -10 54 -10 37 0 47 12 47 56 0 18 -5 24 -23 24 -18 0 -23 5 -23 21 1 12 -5 24 -11 26 -7 3 -13 -1 -13 -8 0 -16 -30 -38 -53 -39 -15 0 -16 3 -7 21 24 44 98 52 137 13z m-63 -21 c-3 -12 5 -24 23 -35 15 -10 22 -18 16 -18 -7 0 -13 -7 -13 -15 0 -18 -7 -18 -65 -3 -33 9 -45 17 -45 31 0 14 5 18 19 14 12 -3 28 4 42 19 27 29 28 29 23 7z"/> <path d="M371 1116 c-93 -51 -48 -176 64 -176 25 0 40 8 59 31 72 85 -24 200 -123 145z m120 -35 c26 -33 19 -77 -17 -108 -30 -27 -56 -29 -95 -6 -60 36 -54 116 11 138 45 15 76 8 101 -24z"/> <path d="M360 1066 c-25 -25 -1 -65 52 -85 28 -10 43 0 67 46 20 38 5 52 -55 50 -30 -1 -59 -6 -64 -11z m110 -15 c0 -10 -8 -29 -19 -42 l-18 -23 -33 20 c-39 23 -48 41 -24 51 10 4 22 0 30 -11 11 -16 13 -16 19 3 8 27 45 28 45 2z"/> <path d="M599 1001 c-62 -62 -15 -161 76 -161 37 0 62 16 80 50 23 44 19 78 -14 111 -41 41 -101 41 -142 0z m133 -8 c20 -18 24 -73 8 -102 -5 -10 -22 -24 -38 -30 -24 -10 -36 -9 -67 3 -47 20 -40 32 9 16 43 -14 73 -1 82 35 7 30 -1 45 -27 45 -12 0 -19 7 -19 18 0 31 -12 33 -33 6 -11 -14 -29 -30 -41 -34 l-21 -9 22 0 c12 -1 31 11 44 27 19 24 21 24 15 5 -6 -18 -2 -24 17 -28 18 -5 23 -12 20 -26 -8 -28 -17 -31 -68 -24 -49 8 -62 26 -46 68 20 53 99 70 143 30z"/> <path d="M2314 966 c-68 -30 -83 -95 -35 -148 25 -28 36 -33 76 -33 40 0 50 4 71 30 45 56 24 130 -43 156 -30 11 -31 11 -69 -5z m97 -35 c33 -33 35 -50 14 -90 -16 -32 -33 -41 -75 -41 -78 0 -112 101 -47 140 44 28 74 25 108 -9z"/> <path d="M2367 924 c-4 -4 -21 -7 -38 -8 -34 -1 -56 -24 -46 -49 8 -22 64 -49 85 -43 29 10 55 62 42 86 -11 20 -31 26 -43 14z m-33 -29 c18 -18 27 -19 24 -3 -2 7 7 14 20 16 29 4 30 -24 1 -54 -20 -21 -24 -22 -49 -9 -29 15 -44 40 -34 56 8 13 20 11 38 -6z"/> <path d="M2650 793 c-98 -50 -63 -183 48 -183 49 0 92 46 92 98 0 33 -6 45 -31 66 -17 14 -34 26 -39 26 -5 0 -14 2 -22 5 -7 3 -29 -3 -48 -12z m101 -32 c16 -16 29 -36 29 -45 0 -61 -58 -105 -116 -86 -59 20 -74 90 -29 135 34 35 78 33 116 -4z"/> <path d="M2647 752 c-34 -38 -15 -95 35 -107 21 -5 33 -1 52 19 31 30 33 55 6 84 -25 27 -71 29 -93 4z m75 -4 c40 -33 22 -84 -29 -82 -40 1 -53 11 -53 39 0 45 48 70 82 43z"/> <path d="M2700 719 c0 -5 5 -7 10 -4 6 3 10 1 10 -4 0 -6 -16 -11 -35 -11 -34 0 -46 -12 -25 -25 6 -3 10 -2 10 3 0 12 33 10 42 -3 9 -13 22 21 14 40 -6 17 -26 20 -26 4z"/> <path d="M195 761 c-30 -13 -54 -44 -61 -79 -6 -27 -1 -37 29 -67 28 -28 43 -35 75 -35 53 0 92 43 92 100 0 65 -70 107 -135 81z m103 -37 c29 -33 28 -65 -4 -103 -31 -37 -71 -41 -105 -10 -21 18 -21 20 -4 13 48 -17 78 -17 92 2 27 37 15 70 -25 65 -9 -2 -11 6 -6 23 8 34 -10 34 -40 1 -22 -24 -56 -34 -56 -17 0 13 32 40 60 51 33 13 60 5 88 -25z m-61 -16 c-1 -15 5 -24 23 -29 14 -4 18 -8 10 -8 -13 -1 -13 -2 0 -11 10 -6 11 -10 3 -10 -7 0 -13 -7 -13 -16 0 -12 -6 -15 -22 -10 -13 4 -38 9 -55 13 -40 7 -48 43 -10 43 12 0 31 11 42 25 25 30 25 30 22 3z"/> <path d="M653 710 c-71 -43 -57 -132 25 -167 46 -19 97 3 118 52 18 45 10 78 -28 110 -36 30 -72 32 -115 5z m114 -22 c32 -30 31 -81 -2 -113 -32 -33 -75 -32 -114 1 -33 27 -39 60 -20 95 22 42 99 51 136 17z"/> <path d="M706 672 c-3 -5 -16 -7 -29 -5 -13 3 -29 -2 -36 -11 -18 -22 3 -54 47 -73 36 -15 37 -15 59 13 31 39 27 78 -9 82 -14 2 -29 -1 -32 -6z m51 -18 c2 -7 -7 -25 -21 -40 -24 -28 -26 -28 -53 -14 -30 17 -45 60 -20 60 8 0 20 -7 28 -16 12 -14 14 -14 21 6 8 22 38 25 45 4z"/> <path d="M2244 556 c-56 -56 -40 -132 31 -156 44 -15 80 -4 110 32 40 47 29 110 -25 141 -44 26 -78 21 -116 -17z m117 1 c26 -20 40 -55 33 -82 -13 -53 -94 -84 -136 -51 -62 46 -27 146 51 146 20 0 43 -6 52 -13z"/> <path d="M2256 528 c-21 -29 -20 -40 5 -72 28 -35 70 -35 98 1 36 45 7 93 -55 93 -23 0 -38 -7 -48 -22z m92 0 c15 -15 16 -65 1 -74 -7 -4 -9 0 -5 13 5 17 1 19 -34 18 -34 0 -40 -3 -36 -18 2 -9 0 -15 -5 -11 -13 8 -11 58 3 72 7 7 24 12 38 12 14 0 31 -5 38 -12z"/> <path d="M2288 315 c-32 -18 -52 -72 -39 -106 33 -87 151 -90 187 -4 36 86 -60 157 -148 110z m101 -10 c48 -24 55 -77 18 -121 -28 -32 -72 -36 -111 -11 -51 34 -47 109 7 132 41 18 52 18 86 0z"/> <path d="M2356 281 c-4 -6 -19 -8 -34 -5 -33 7 -57 -15 -48 -44 9 -29 72 -59 94 -46 30 19 49 61 36 81 -13 21 -39 28 -48 14z m-26 -32 c0 -5 5 -9 10 -9 6 0 10 7 10 16 0 10 7 14 22 12 30 -4 32 -18 5 -52 l-24 -29 -31 19 c-29 17 -41 42 -26 57 8 8 34 -3 34 -14z"/> </g> </svg> 