 <svg  version="1.0" xmlns="http://www.w3.org/2000/svg"  width="300.000000pt" height="299.000000pt" viewBox="0 0 300.000000 299.000000"  preserveAspectRatio="xMidYMid meet">  <g transform="translate(0.000000,299.000000) scale(0.100000,-0.100000)" fill="#d70404" stroke="none"> <path d="M1105 2980 c-40 -16 -65 -56 -75 -116 -9 -54 -258 -2028 -298 -2357 l-17 -139 -118 366 c-114 355 -117 367 -101 391 13 20 15 38 10 80 l-6 55 27 -11 c82 -31 174 62 179 181 1 30 7 68 13 83 14 37 14 42 -4 57 -8 7 -15 21 -15 31 0 34 -25 20 -47 -28 -17 -36 -19 -51 -11 -69 11 -25 -1 -53 -45 -101 -29 -32 -52 -29 -84 13 -15 20 -35 45 -43 55 -11 14 -31 21 -67 24 -29 2 -57 6 -63 10 -17 11 -11 54 9 65 16 8 19 17 14 48 -3 20 -9 41 -14 46 -4 5 -5 22 -2 37 8 40 -11 59 -59 59 -34 0 -46 -7 -98 -58 l-60 -58 6 -50 6 -50 -51 -43 c-29 -24 -59 -57 -67 -74 -20 -37 -22 -134 -5 -166 7 -13 15 -59 16 -102 4 -98 33 -156 118 -234 85 -78 85 -59 0 22 -94 91 -107 127 -101 270 3 68 12 128 24 163 18 51 22 55 66 69 46 14 47 14 117 -23 l70 -36 32 45 c46 64 71 61 129 -13 25 -31 53 -58 62 -60 21 -4 82 50 98 88 19 47 40 38 40 -17 0 -59 -33 -129 -74 -155 -25 -15 -42 -18 -85 -13 -43 4 -52 3 -48 -8 3 -8 8 -35 12 -59 6 -38 3 -49 -17 -71 -19 -22 -40 -29 -123 -43 -140 -25 -157 -24 -172 6 -7 14 -13 51 -13 83 0 62 -14 76 -24 26 -16 -81 -8 -121 43 -208 55 -93 52 -93 70 19 l9 55 1 -55 c1 -58 -27 -136 -52 -146 -11 -4 -15 -53 -21 -232 -3 -125 -11 -270 -16 -322 -10 -106 -6 -116 45 -126 31 -6 33 -9 40 -60 3 -29 3 -58 0 -64 -4 -6 -4 -22 -1 -36 6 -24 8 -24 111 -24 93 0 105 2 105 18 0 15 -10 17 -100 14 -97 -4 -100 -3 -100 18 0 11 4 19 9 16 5 -3 14 1 21 9 18 21 49 18 95 -10 22 -14 44 -25 48 -25 17 0 -3 17 -47 39 -44 22 -46 24 -46 67 0 35 4 44 18 45 15 0 14 2 -3 10 -17 8 -17 9 5 4 14 -2 34 -5 45 -6 17 -1 16 -2 -5 -9 -24 -9 -24 -9 5 -7 24 2 29 6 27 22 -10 61 -41 498 -43 598 -2 94 1 121 12 128 24 15 33 10 16 -9 -13 -14 -15 -38 -11 -142 2 -69 9 -159 14 -200 11 -80 59 -366 66 -389 3 -10 17 -12 55 -8 l50 6 22 -47 c12 -26 21 -67 22 -92 l0 -45 113 -3 c104 -2 112 -1 112 16 0 23 -22 43 -78 71 -25 13 -47 32 -53 48 -5 14 -8 26 -7 27 2 0 146 0 321 -2 l317 -3 0 -29 c0 -33 3 -35 46 -44 29 -6 34 -4 54 28 28 47 55 47 77 1 15 -32 20 -35 48 -29 42 9 45 12 45 45 l0 29 290 0 c321 0 344 4 379 60 10 17 22 59 25 93 12 108 17 128 34 125 9 -2 23 9 31 24 14 24 14 28 -2 46 -25 27 -21 42 12 48 53 11 48 84 -6 84 -21 0 -15 36 10 53 l22 15 -22 29 c-20 28 -21 36 -12 109 16 127 16 127 50 122 16 -3 34 0 39 7 6 8 -1 10 -25 7 -54 -6 -103 15 -136 61 -39 53 -51 102 -51 207 0 146 35 229 119 281 34 21 36 22 87 5 71 -22 92 -21 92 4 0 13 -7 20 -19 20 -16 0 -17 -3 -7 -15 15 -18 9 -19 -41 -3 -45 13 -47 19 -18 59 11 16 17 33 14 39 -3 5 3 72 14 147 11 76 48 360 82 631 l62 493 -20 27 c-12 17 -37 31 -64 39 -52 13 -1451 17 -1484 3z m1451 -24 c21 -18 28 -32 27 -58 -3 -90 -167 -1343 -177 -1347 -6 -2 -32 -25 -57 -50 -59 -61 -74 -113 -74 -256 0 -93 4 -118 23 -160 13 -27 29 -56 36 -65 17 -19 1 -173 -18 -167 -6 3 -20 -4 -32 -15 -26 -24 -52 -15 -56 20 -2 22 -9 28 -35 30 -28 3 -32 0 -38 -27 -8 -37 -36 -41 -56 -10 -13 19 -17 19 -43 8 -24 -11 -27 -17 -23 -45 6 -37 -12 -51 -43 -34 -25 14 -25 14 -45 -16 -16 -25 -16 -27 7 -51 23 -24 23 -25 4 -39 -11 -8 -28 -14 -38 -14 -14 0 -18 -8 -18 -34 0 -30 4 -35 30 -41 35 -8 38 -21 10 -50 -17 -18 -19 -27 -10 -49 9 -24 14 -26 44 -21 36 7 52 -9 35 -36 -14 -23 -10 -36 17 -54 25 -16 27 -16 48 4 30 28 33 27 50 -14 12 -27 21 -35 41 -35 20 0 28 7 36 30 12 33 30 38 49 15 19 -22 8 -120 -17 -153 -36 -48 -53 -52 -267 -52 l-199 0 22 24 23 25 -20 33 c-28 45 -15 68 38 68 43 0 45 1 55 47 6 30 4 34 -29 50 -48 23 -49 53 -1 76 39 19 40 21 24 66 -10 28 -15 31 -50 31 -52 0 -65 24 -38 70 l21 33 -30 30 -30 30 -32 -23 c-42 -30 -64 -18 -68 38 -3 38 -6 42 -39 51 -43 12 -47 10 -63 -29 -18 -44 -55 -41 -77 5 -11 23 -22 34 -31 30 -8 -3 -25 -8 -38 -11 -20 -5 -24 -12 -24 -44 0 -56 -22 -70 -70 -43 l-37 22 -28 -29 -27 -29 22 -36 c28 -45 15 -65 -41 -65 -35 0 -39 -3 -48 -37 -12 -43 -10 -47 29 -63 42 -17 41 -54 -2 -76 -18 -9 -34 -18 -36 -19 -2 -2 2 -22 9 -45 12 -41 13 -41 50 -35 32 6 39 3 49 -15 9 -17 7 -27 -9 -54 l-20 -32 22 -22 21 -22 -245 0 c-234 0 -248 1 -273 21 -31 24 -35 59 -7 59 18 0 19 2 5 30 -9 16 -16 45 -16 62 -2 31 155 1284 169 1358 4 26 7 30 11 15 10 -48 80 -89 204 -120 50 -13 94 -27 97 -32 4 -4 22 -118 41 -252 28 -207 37 -248 55 -269 46 -53 125 -20 125 52 0 17 -13 126 -30 241 -16 116 -30 214 -30 219 0 5 47 5 106 1 l106 -7 132 -86 c272 -178 297 -192 340 -192 54 0 98 36 135 113 57 115 66 171 66 389 0 149 -3 200 -13 210 -11 11 -12 0 -5 -57 14 -120 9 -313 -11 -397 -78 -347 -284 -323 -390 45 -81 279 -50 624 68 754 38 42 48 48 84 48 81 0 154 -94 211 -270 16 -49 30 -81 30 -69 2 46 -69 224 -107 267 -14 16 -10 17 78 17 73 0 97 4 112 17 24 22 24 69 -1 83 -12 6 -135 10 -330 10 -309 0 -310 0 -325 -22 -20 -28 -20 -39 -2 -64 12 -16 30 -20 110 -24 l96 -5 -154 -132 -154 -133 -188 -39 c-210 -44 -322 -84 -403 -144 l-53 -39 6 28 c3 16 33 245 66 509 33 264 63 495 66 514 3 20 19 48 39 68 l33 33 705 0 706 0 27 -24z m-252 -552 c19 -19 20 -38 3 -52 -7 -6 -56 -12 -108 -13 -89 -1 -99 0 -135 25 -52 35 -99 34 -150 -2 -38 -28 -41 -28 -144 -23 -100 6 -105 7 -108 29 -8 51 -3 52 324 52 262 0 305 -2 318 -16z m-469 -166 c-94 -206 -58 -685 65 -858 12 -16 19 -30 16 -30 -3 0 -85 52 -181 116 -191 127 -201 138 -225 245 -18 81 -9 223 17 274 13 25 77 90 169 172 82 72 152 132 156 132 4 1 -4 -23 -17 -51z m-305 -216 c0 -4 -5 -13 -11 -19 -16 -16 -39 -113 -39 -169 0 -78 17 -153 49 -215 l28 -57 -36 4 c-20 2 -103 9 -185 14 -81 6 -153 13 -158 16 -22 14 -50 100 -55 169 -6 80 9 156 35 177 8 7 90 29 181 49 189 41 191 42 191 31z m-407 -119 c-23 -57 -15 -216 15 -267 l22 -38 -32 7 c-124 28 -139 44 -146 155 -5 94 6 116 80 150 35 16 66 29 70 30 4 0 0 -17 -9 -37z m-155 -83 c-10 -39 -3 -106 18 -155 7 -18 4 -17 -26 6 -57 44 -64 129 -13 169 14 11 27 20 28 20 2 0 -2 -18 -7 -40z m-621 -203 c3 -27 -1 -36 -16 -40 -11 -2 -24 0 -30 6 -8 8 -11 8 -11 -1 0 -7 7 -15 15 -18 9 -4 15 -11 14 -18 -4 -31 3 -47 26 -58 30 -14 30 -16 1 -51 l-23 -29 -58 30 c-55 27 -57 30 -38 41 15 8 25 28 33 67 11 52 10 57 -9 75 -25 23 -27 33 -6 25 8 -3 15 -1 15 5 0 6 10 19 23 30 22 18 22 18 41 -6 11 -13 21 -40 23 -58z m-139 26 c1 -10 4 -35 8 -56 4 -26 1 -44 -10 -62 -19 -29 -53 -35 -41 -7 5 9 11 40 14 67 8 62 24 95 29 58z m487 -90 c17 -40 9 -57 -21 -51 -20 4 -33 38 -14 38 6 0 8 -4 5 -10 -3 -5 -2 -10 3 -10 6 0 12 7 16 15 3 9 0 15 -8 15 -9 0 -12 7 -9 20 7 27 10 26 28 -17z m651 9 c5 -4 25 -114 43 -245 30 -222 32 -240 17 -262 -11 -17 -26 -25 -45 -25 -53 0 -60 20 -97 282 -19 134 -34 246 -34 251 0 9 102 9 116 -1z m-1161 -498 c10 -7 22 -15 28 -17 6 -2 6 -17 2 -37 l-8 -34 -28 54 c-18 35 -28 69 -27 95 l1 40 7 -44 c4 -24 15 -50 25 -57z m382 -364 c62 -190 114 -356 115 -369 3 -23 -3 -27 -65 -44 -42 -13 -71 -17 -77 -11 -5 5 -28 97 -51 204 -40 192 -46 264 -35 439 0 13 -7 28 -17 35 -15 9 -22 7 -39 -14 -18 -22 -20 -35 -15 -130 3 -58 7 -208 10 -334 l4 -228 -36 7 c-20 4 -58 10 -86 14 l-50 6 0 55 c1 30 4 156 9 280 7 199 11 228 28 252 11 16 25 61 31 100 12 72 13 73 47 79 19 4 53 6 74 5 l40 -1 113 -345z m1655 143 c4 -34 40 -43 67 -19 28 26 54 10 47 -28 -8 -44 5 -60 42 -51 25 5 31 3 37 -15 5 -14 0 -26 -16 -38 -27 -23 -19 -59 17 -68 35 -9 34 -54 -1 -54 -37 0 -50 -38 -22 -67 27 -30 8 -57 -35 -48 -40 9 -60 -9 -47 -41 12 -33 12 -32 -11 -44 -17 -9 -24 -6 -43 16 -20 23 -26 25 -45 15 -12 -6 -22 -21 -22 -31 0 -14 -7 -20 -24 -20 -18 0 -25 7 -29 29 -8 37 -35 44 -64 18 -19 -17 -25 -18 -38 -7 -11 9 -14 22 -10 37 10 40 -10 63 -49 56 -41 -6 -54 16 -25 43 10 9 19 28 19 41 0 18 -7 25 -31 30 -40 8 -38 46 3 51 35 4 48 44 24 71 -24 26 -10 54 21 46 14 -3 34 -3 45 1 17 5 19 12 15 40 -5 27 -2 34 14 39 13 4 25 0 37 -14 22 -27 58 -18 66 15 9 36 54 34 58 -3z m-755 -66 c26 -44 69 -44 91 -1 20 39 16 37 51 29 28 -6 31 -10 31 -45 0 -29 6 -43 22 -54 20 -14 25 -14 56 6 l34 21 20 -21 21 -20 -21 -33 c-18 -30 -19 -34 -5 -56 12 -17 25 -23 53 -23 25 0 40 -5 44 -16 13 -33 6 -52 -24 -64 -24 -10 -30 -18 -30 -44 0 -27 6 -35 35 -49 32 -15 34 -18 24 -47 -10 -26 -16 -30 -50 -30 -53 0 -69 -29 -44 -77 18 -33 18 -34 -2 -55 -20 -20 -22 -20 -51 -2 -26 14 -35 16 -56 6 -22 -10 -26 -18 -26 -51 0 -34 -4 -40 -29 -49 -26 -9 -29 -8 -44 24 -14 29 -22 34 -51 34 -28 0 -36 -5 -46 -30 -8 -20 -19 -30 -34 -30 -35 0 -47 14 -44 50 2 27 -2 36 -23 49 -24 13 -29 13 -56 -7 l-30 -21 -23 24 -22 24 21 30 c21 29 21 32 5 56 -13 19 -25 25 -54 25 -25 0 -40 5 -44 16 -11 30 -6 44 24 59 24 13 30 22 30 49 0 28 -5 36 -30 46 -30 12 -35 24 -24 54 4 11 19 16 45 16 32 0 41 5 53 28 13 25 12 30 -5 52 -24 32 -24 43 0 65 19 16 21 16 50 -4 25 -18 33 -20 55 -10 22 10 26 19 26 55 0 42 6 49 47 53 6 0 20 -14 30 -32z m-748 -587 l21 -70 -20 -20 c-16 -16 -25 -18 -40 -10 -11 6 -20 15 -20 19 0 5 -12 35 -27 67 -17 37 -29 52 -31 42 -4 -21 -68 -36 -85 -19 -6 6 -9 11 -6 11 2 0 36 11 74 25 107 38 109 37 134 -45z m-469 20 c0 -23 0 -23 -34 -10 -35 13 -33 30 4 30 23 0 30 -4 30 -20z m78 14 c20 -6 22 -13 22 -65 0 -52 -2 -59 -19 -59 -11 0 -23 -5 -26 -10 -13 -21 -23 -8 -29 43 -3 28 -9 62 -12 75 -5 18 -2 22 17 22 13 0 34 -3 47 -6z m1052 -49 c0 -3 -17 -5 -37 -5 -35 1 -37 2 -19 15 13 10 24 11 37 4 11 -5 19 -12 19 -14z m334 10 c18 -14 17 -15 -25 -15 -41 1 -43 2 -25 15 24 18 26 18 50 0z m-904 -115 c91 -46 81 -60 -39 -60 -103 0 -113 4 -103 43 4 14 11 17 28 13 14 -4 24 -2 24 4 0 6 9 5 23 -4 30 -18 81 -30 72 -16 -3 5 -14 10 -24 10 -21 0 -73 39 -53 40 7 0 39 -14 72 -30z m-382 -57 c-26 -2 -71 -2 -100 0 -29 2 -8 3 47 3 55 0 79 -1 53 -3z"/> <path d="M1785 2924 c-9 -9 -15 -28 -13 -43 6 -49 88 -37 88 13 0 43 -44 61 -75 30z m60 -14 c10 -15 -14 -50 -34 -50 -21 0 -33 22 -25 45 7 17 49 20 59 5z"/> <path d="M1103 2778 c-6 -7 -20 -94 -32 -193 -12 -99 -25 -196 -28 -215 -3 -23 -2 -32 4 -25 6 6 20 96 32 200 12 105 26 200 31 213 l10 22 679 0 c374 0 682 -3 685 -8 2 -4 -20 -201 -50 -437 -52 -415 -59 -483 -50 -474 9 9 118 899 112 914 -5 13 -86 15 -694 15 -540 0 -692 -3 -699 -12z"/> <path d="M1536 2604 c-9 -8 -16 -26 -16 -39 0 -55 -1 -55 415 -55 416 0 415 0 415 55 0 55 1 55 -415 55 -335 0 -386 -2 -399 -16z m782 -10 c26 -18 28 -31 5 -56 -15 -17 -40 -18 -389 -18 -325 0 -375 2 -388 16 -9 8 -16 22 -16 29 0 7 7 21 16 29 13 14 62 16 382 16 317 0 371 -2 390 -16z"/> <path d="M1944 2311 c-112 -69 -162 -324 -119 -612 30 -202 118 -354 211 -366 36 -5 45 -1 78 27 43 38 67 82 91 164 18 62 35 256 23 256 -5 0 -8 -27 -8 -59 0 -126 -46 -284 -100 -339 -85 -89 -188 -11 -254 192 -15 44 -25 81 -23 83 2 1 34 11 72 20 60 15 69 20 81 49 26 61 14 173 -23 215 -9 11 -35 18 -78 21 -35 2 -67 7 -70 10 -4 3 -1 35 5 69 39 227 136 325 234 239 30 -27 92 -134 112 -195 4 -13 8 -15 11 -7 7 17 -57 149 -92 191 -27 32 -79 61 -107 61 -7 0 -27 -9 -44 -19z m33 -404 c11 -20 17 -56 17 -97 0 -110 -39 -145 -74 -67 -31 68 -24 174 14 199 14 9 23 2 43 -35z"/> <path d="M902 1270 c-1 -8 -5 -33 -8 -55 -5 -31 -4 -37 5 -29 7 7 11 29 8 55 -2 24 -4 37 -5 29z"/> <path d="M880 1083 c0 -5 -11 -96 -25 -203 -24 -191 -29 -249 -18 -221 11 27 58 431 51 431 -4 0 -8 -3 -8 -7z"/> <path d="M807 495 c-3 -22 -11 -87 -18 -143 -10 -88 -10 -105 2 -113 20 -12 379 -12 379 1 0 6 -70 10 -191 10 l-191 0 5 33 c14 76 29 226 25 239 -3 7 -7 -5 -11 -27z"/> <path d="M2103 731 c-89 -56 -83 -200 10 -244 150 -71 277 113 157 228 -40 38 -120 46 -167 16z m127 -6 c15 -8 38 -27 50 -42 18 -23 20 -35 14 -82 -7 -63 -24 -87 -72 -108 -68 -28 -154 19 -168 92 -19 103 86 187 176 140z"/> <path d="M1435 628 c-105 -58 -140 -177 -80 -273 39 -62 91 -90 165 -90 162 1 245 188 138 311 -17 19 -44 42 -59 50 -33 16 -135 18 -164 2z m179 -29 c109 -74 99 -247 -17 -303 -83 -39 -191 -7 -234 69 -51 90 -13 207 82 251 44 21 126 13 169 -17z"/> <path d="M745 2831 c-128 -65 -82 -251 61 -251 77 0 142 74 131 147 -16 97 -108 146 -192 104z m147 -40 c51 -57 32 -153 -38 -186 -65 -31 -141 2 -164 70 -16 49 -4 89 37 126 33 28 41 31 87 26 40 -3 55 -11 78 -36z"/> <path d="M780 2779 c0 -12 -8 -23 -20 -26 -11 -3 -20 -11 -20 -19 0 -8 6 -11 15 -8 9 4 15 0 15 -10 0 -9 -8 -16 -20 -16 -11 0 -20 -4 -20 -10 0 -5 7 -10 16 -10 12 0 15 -7 12 -25 -4 -17 -1 -25 8 -25 8 0 14 11 14 25 0 16 6 25 16 25 12 0 15 -6 10 -25 -5 -18 -2 -25 9 -25 9 0 15 9 15 25 0 18 5 25 20 25 11 0 20 5 20 10 0 6 -7 10 -15 10 -8 0 -15 7 -15 16 0 10 6 14 15 10 9 -3 15 0 15 9 0 8 -6 15 -14 15 -9 0 -12 8 -8 25 6 36 -15 31 -23 -6 -8 -37 -31 -33 -27 4 2 15 -1 27 -7 27 -6 0 -11 -9 -11 -21z"/> <path d="M407 2706 c-72 -26 -107 -80 -107 -164 0 -54 24 -100 73 -136 40 -30 144 -30 184 0 70 52 94 143 56 221 -33 69 -130 107 -206 79z m140 -27 c95 -59 95 -192 0 -263 -38 -28 -126 -28 -164 0 -94 70 -96 197 -4 260 47 31 119 33 168 3z"/> <path d="M390 2591 c-15 -30 -12 -47 15 -80 40 -46 61 -48 101 -10 35 34 45 74 22 97 -17 17 -47 15 -54 -3 -5 -13 -8 -13 -27 0 -29 20 -44 19 -57 -4z m88 -57 c-9 -9 -21 -13 -27 -10 -20 13 -11 26 16 26 25 0 26 -1 11 -16z"/> <path d="M2814 2356 c-20 -15 -13 -43 12 -53 10 -4 22 1 30 11 24 33 -9 66 -42 42z"/> <path d="M342 2319 c-41 -8 -71 -34 -88 -76 -18 -42 -18 -67 3 -110 46 -97 191 -96 237 1 20 42 20 67 2 111 -23 55 -91 88 -154 74z m88 -24 c40 -21 60 -53 60 -98 0 -53 -23 -91 -66 -112 -47 -22 -94 -13 -132 25 -53 52 -45 136 17 177 39 27 80 29 121 8z"/> <path d="M330 2196 c0 -29 3 -55 6 -58 6 -7 104 51 104 61 0 3 -25 16 -55 28 l-55 21 0 -52z"/> <path d="M540 2024 c-79 -19 -151 -40 -159 -48 -12 -13 -11 -29 9 -126 31 -148 31 -147 115 -131 l68 12 33 -32 c19 -18 35 -31 37 -28 2 2 8 22 13 43 8 34 14 41 44 48 104 24 110 27 110 58 0 38 -40 212 -52 228 -15 18 -58 14 -218 -24z m207 14 c13 -17 58 -226 51 -233 -3 -4 -35 -13 -69 -21 -68 -15 -89 -33 -89 -72 l0 -24 -34 30 -35 30 -62 -14 c-34 -8 -66 -11 -70 -7 -15 15 -58 228 -48 238 9 9 292 81 330 84 9 0 21 -5 26 -11z"/> <path d="M573 1947 c-50 -12 -95 -25 -99 -29 -4 -5 -4 -8 0 -8 14 0 231 51 235 56 10 9 -49 1 -136 -19z"/> <path d="M558 1887 c-49 -11 -88 -24 -88 -30 0 -5 6 -7 13 -4 7 2 47 12 90 22 42 9 77 21 77 26 0 5 -1 8 -2 8 -2 -1 -42 -10 -90 -22z"/> <path d="M620 1843 c-118 -26 -135 -31 -128 -38 5 -5 229 43 237 51 12 11 -13 9 -109 -13z"/> <path d="M2624 1967 c-3 -8 -4 -43 -2 -78 l3 -64 180 0 180 0 0 75 0 75 -178 3 c-143 2 -178 0 -183 -11z m351 -67 l0 -65 -167 -3 -168 -2 0 70 0 70 168 -2 167 -3 0 -65z"/> <path d="M2680 1920 c0 -6 50 -10 130 -10 80 0 130 4 130 10 0 6 -50 10 -130 10 -80 0 -130 -4 -130 -10z"/> <path d="M2723 1883 c26 -2 68 -2 95 0 26 2 4 3 -48 3 -52 0 -74 -1 -47 -3z"/> <path d="M2545 1758 c-2 -7 -6 -26 -10 -43 -14 -69 -14 -74 2 -68 12 5 14 0 9 -24 -7 -32 2 -45 42 -57 16 -6 24 -3 29 11 3 10 12 22 20 26 7 4 13 19 13 33 0 21 3 24 25 18 22 -6 25 -3 25 23 0 36 -16 53 -52 53 -17 0 -33 8 -40 20 -14 22 -56 27 -63 8z m93 -70 c15 -20 3 -78 -17 -78 -36 0 -44 15 -30 54 13 37 29 45 47 24z"/> <path d="M2895 1518 c-28 -38 -41 -64 -34 -68 10 -7 -44 -60 -61 -60 -23 0 -44 17 -73 59 -44 65 -87 101 -117 100 -22 -1 -23 -2 -5 -7 33 -11 59 -34 99 -87 21 -27 45 -56 54 -62 29 -23 64 -15 104 24 52 51 65 36 39 -47 -24 -78 -71 -130 -116 -130 -21 0 -33 -6 -40 -21 -6 -13 -35 -30 -80 -45 -109 -39 -127 -44 -166 -44 l-37 0 8 -36 c6 -25 5 -34 -3 -31 -7 2 -12 22 -13 44 -1 21 -4 60 -8 85 -5 35 -2 63 14 109 11 34 18 64 15 67 -5 5 -6 4 -35 -82 -38 -112 -20 -207 47 -252 18 -12 29 -25 25 -29 -4 -5 -2 -5 5 -2 6 4 14 25 18 47 7 40 25 66 25 35 0 -25 -29 -88 -51 -111 -20 -22 -20 -24 -4 -154 9 -80 15 -195 14 -289 l-2 -156 38 -95 c47 -120 50 -138 35 -200 -18 -77 -12 -80 136 -80 107 0 124 2 124 16 0 20 -30 46 -108 90 l-62 36 2 251 c1 139 5 224 8 190 l5 -61 133 120 c118 107 132 123 132 152 0 37 -75 196 -151 322 -27 45 -49 86 -49 92 0 5 16 13 35 16 19 4 48 20 64 36 30 30 71 123 71 160 0 11 4 20 9 20 8 0 17 19 40 91 15 48 15 49 -14 49 -19 0 -35 -15 -70 -62z m73 30 c-7 -13 -13 -36 -14 -51 -2 -30 -19 -55 -30 -44 -4 4 0 15 9 25 10 10 17 23 17 28 -1 5 -10 -2 -21 -16 -21 -24 -56 -39 -42 -16 41 63 68 96 80 96 11 0 12 -4 1 -22z m-201 -440 c42 -68 131 -236 143 -273 15 -45 8 -57 -94 -150 l-85 -77 -24 28 -24 28 -18 -27 c-14 -22 -18 -59 -23 -217 -3 -104 -9 -190 -14 -190 -5 0 -21 26 -36 58 -25 54 -27 67 -33 277 -4 121 -12 255 -19 297 -9 62 -8 82 2 100 7 13 22 50 33 82 19 58 22 61 75 82 76 32 86 30 117 -18z m-97 -948 c0 -65 -59 -54 -60 12 0 8 41 16 53 10 4 -2 7 -12 7 -22z m37 -48 c8 -5 9 -13 3 -22 -18 -28 -10 -35 11 -10 20 24 21 24 16 3 -5 -24 8 -32 16 -10 4 13 87 -38 87 -54 0 -5 -55 -8 -122 -7 l-123 2 120 6 120 6 -121 2 -122 2 10 40 c9 36 12 39 39 33 18 -3 29 -1 29 6 0 13 19 14 37 3z"/> <path d="M2680 1003 c-14 -19 -21 -40 -20 -72 0 -25 -3 -81 -6 -124 -7 -84 8 -127 45 -127 27 0 101 75 101 103 0 13 -16 46 -35 73 -38 54 -44 87 -19 122 12 18 13 26 4 37 -19 23 -46 18 -70 -12z m60 -2 c0 -5 -9 -13 -20 -16 -35 -11 -27 -85 15 -151 l35 -55 -40 -38 -40 -38 0 143 c0 126 2 144 18 153 22 13 32 14 32 2z"/> <path d="M2686 1435 c3 -11 19 -55 34 -98 27 -75 40 -102 40 -81 0 21 -52 163 -66 180 -15 19 -15 18 -8 -1z"/> <path d="M466 1360 c3 -25 10 -52 16 -60 6 -10 7 1 2 30 -3 25 -10 52 -16 60 -6 10 -7 -1 -2 -30z"/> </g> </svg> 