 <svg  version="1.0" xmlns="http://www.w3.org/2000/svg"  width="128.000000pt" height="128.000000pt" viewBox="0 0 128.000000 128.000000"  preserveAspectRatio="xMidYMid meet">  <g transform="translate(0.000000,128.000000) scale(0.100000,-0.100000)" fill="#b30000" stroke="none"> <path d="M410 1260 c-18 -18 -21 -32 -19 -88 l3 -67 -67 -3 -67 -3 0 -104 0 -105 65 0 65 0 0 -44 c0 -24 2 -50 5 -58 3 -7 -8 -20 -24 -30 -40 -22 -60 -56 -77 -129 -8 -35 -23 -77 -34 -94 -11 -19 -20 -50 -20 -73 0 -23 -9 -56 -19 -74 -11 -18 -27 -60 -35 -92 -9 -32 -18 -61 -21 -64 -10 -10 -35 22 -41 53 -5 30 -10 34 -51 40 -51 7 -73 -5 -73 -42 0 -28 138 -178 177 -194 37 -14 72 6 93 53 l19 43 0 -56 c1 -31 -2 -69 -5 -85 l-5 -29 -100 3 c-67 3 -99 0 -99 -7 0 -8 173 -11 601 -11 430 0 598 3 593 11 -4 6 -20 8 -40 4 l-34 -6 0 619 c0 587 -1 620 -18 635 -15 14 -40 17 -125 17 l-106 0 -13 -42 c-6 -24 -17 -46 -23 -50 -5 -4 -53 -8 -105 -8 -52 0 -100 4 -105 8 -6 4 -15 25 -20 47 l-10 40 -122 3 c-113 2 -124 1 -143 -18z m244 -12 c12 -47 10 -48 -84 -48 l-90 0 0 -50 0 -50 -35 0 -35 0 0 69 c0 44 5 72 13 79 7 6 56 13 108 15 51 1 99 4 105 5 7 1 14 -8 18 -20z m514 7 c9 -4 12 -137 12 -622 l0 -618 -282 2 c-261 2 -283 3 -289 20 -18 44 -21 43 251 43 l260 0 0 430 c0 280 -3 430 -10 430 -7 0 -10 -147 -10 -420 l0 -420 -250 0 -250 0 0 29 c0 57 9 64 42 31 37 -38 89 -41 112 -8 16 22 36 79 56 156 6 23 15 40 21 37 12 -8 79 14 79 25 0 5 -8 13 -17 19 -15 8 -16 13 -5 30 27 45 4 109 -36 99 -19 -5 -32 8 -32 33 0 13 138 11 176 -3 76 -27 85 65 19 199 -57 116 -108 143 -139 73 -22 -51 -94 -122 -149 -149 -58 -28 -81 -54 -73 -83 10 -39 23 -51 62 -57 l39 -7 -4 -64 c-2 -43 -11 -78 -25 -102 -24 -43 -32 -46 -41 -19 -3 11 -17 35 -30 55 -20 30 -22 39 -12 65 9 25 7 40 -16 98 -14 37 -29 89 -32 114 -6 49 -42 94 -80 101 -17 3 -20 12 -23 61 -3 50 -1 57 15 57 11 0 39 -20 63 -45 24 -25 48 -45 52 -45 4 0 8 20 8 45 0 41 2 45 25 45 l25 0 0 105 0 105 -95 0 -95 0 0 40 0 40 89 0 c66 0 92 -4 101 -15 10 -12 38 -15 131 -15 91 0 121 3 133 15 10 11 36 15 85 15 l71 0 0 -55 c0 -30 5 -55 10 -55 6 0 10 28 10 65 l0 65 -81 0 c-79 0 -81 1 -75 23 3 12 6 27 6 33 0 10 166 9 198 -1z m-508 -260 c0 -84 0 -85 -25 -85 -23 0 -25 -4 -25 -41 l0 -41 -41 41 -41 41 -124 0 -124 0 0 85 0 85 190 0 190 0 0 -85z m-182 -162 c-3 -57 -3 -58 -35 -61 l-33 -3 0 60 0 61 35 0 36 0 -3 -57z m478 -25 c38 -46 75 -134 81 -195 5 -49 4 -53 -15 -53 -11 0 -30 12 -41 26 -22 28 -27 54 -11 54 5 0 12 11 16 25 9 37 -19 75 -55 75 -25 0 -29 4 -33 33 -8 74 13 87 58 35z m-10 -200 c10 -10 15 -20 13 -22 -2 -2 -44 -5 -93 -7 l-88 -4 -15 37 -15 37 64 63 63 63 27 -74 c15 -41 35 -82 44 -93z m-399 105 c8 -21 -2 -25 -30 -12 -22 10 -31 8 -64 -12 -56 -34 -62 -47 -64 -124 -1 -91 -9 -117 -41 -134 -21 -12 -31 -13 -52 -3 -32 14 -35 53 -7 97 10 17 25 59 34 94 19 76 39 109 70 116 72 16 143 6 154 -22z m-10 -102 c-7 -60 -35 -87 -79 -75 -30 9 -33 13 -36 55 -3 40 0 47 23 57 14 7 28 19 31 27 5 13 10 13 36 -3 27 -16 29 -21 25 -61z m225 -52 c-20 -20 -52 -19 -72 1 -27 27 -22 61 10 77 24 12 26 10 47 -30 12 -23 18 -45 15 -48z m-147 -61 c5 -25 -18 -33 -55 -18 -36 15 -37 29 -8 80 l23 39 18 -41 c10 -22 20 -49 22 -60z m-158 20 c45 -20 53 -37 35 -75 -18 -38 -37 -39 -63 -3 -12 17 -16 35 -12 58 6 37 4 36 40 20z m421 -46 c5 -32 -16 -56 -34 -41 -15 12 -19 51 -7 63 14 13 38 0 41 -22z m-331 -18 c3 -9 -2 -32 -12 -50 -14 -27 -21 -31 -36 -24 -16 9 -16 12 4 50 24 43 34 49 44 24z m247 -27 c23 -60 22 -73 -5 -55 -15 9 -22 26 -24 56 -4 54 8 54 29 -1z m-156 -44 c17 -26 36 -60 43 -75 7 -16 15 -28 19 -28 3 0 17 20 29 45 20 41 24 44 44 34 12 -7 24 -13 26 -15 8 -7 -53 -171 -71 -186 -18 -16 -23 -16 -48 -3 -40 21 -72 64 -64 87 7 23 -3 88 -14 88 -8 0 -16 -134 -15 -245 l1 -70 -142 0 -141 0 0 120 c0 66 4 126 8 133 5 7 3 12 -5 12 -9 0 -23 -29 -36 -75 -27 -91 -53 -115 -99 -91 -49 25 -57 41 -38 70 10 14 20 26 23 26 3 0 20 -12 39 -26 41 -31 56 -25 18 7 -23 21 -25 28 -19 64 8 50 42 143 55 151 5 3 16 0 24 -6 8 -7 33 -10 55 -8 22 2 40 0 40 -4 0 -3 14 -17 31 -29 l32 -22 17 24 c18 23 19 23 39 5 20 -18 22 -18 41 -1 10 9 24 33 30 51 10 28 14 32 30 24 9 -5 31 -31 48 -57z m-193 -3 c-10 -16 -30 -12 -50 10 -15 16 -15 22 -5 35 11 13 15 12 37 -9 14 -14 22 -30 18 -36z m-372 -84 c11 -11 17 -12 26 -3 8 8 11 4 11 -16 0 -15 6 -36 12 -47 10 -16 10 -23 -5 -37 -16 -16 -19 -15 -57 27 -43 49 -53 90 -21 90 11 0 26 -6 34 -14z"/> <path d="M314 1039 c-20 -22 -12 -47 26 -84 l29 -28 30 31 c31 30 41 75 21 87 -25 15 -90 12 -106 -6z m76 -33 c0 -22 -19 -30 -35 -16 -22 18 -18 30 10 30 15 0 25 -6 25 -14z"/> <path d="M500 1030 c0 -6 30 -10 70 -10 40 0 70 4 70 10 0 6 -30 10 -70 10 -40 0 -70 -4 -70 -10z"/> <path d="M470 960 c0 -6 35 -10 85 -10 50 0 85 4 85 10 0 6 -35 10 -85 10 -50 0 -85 -4 -85 -10z"/> </g> </svg> 