 <svg  version="1.0" xmlns="http://www.w3.org/2000/svg"  width="128.000000pt" height="128.000000pt" viewBox="0 0 128.000000 128.000000"  preserveAspectRatio="xMidYMid meet">  <g transform="translate(0.000000,128.000000) scale(0.100000,-0.100000)" fill="#b30000" stroke="none"> <path d="M240 1260 c-19 -19 -20 -33 -20 -230 l0 -210 -110 0 -111 0 3 -102 c3 -98 4 -103 26 -106 19 -3 22 -9 22 -48 0 -24 4 -44 8 -44 4 0 28 20 52 45 35 35 51 45 77 45 l33 0 0 -285 c0 -272 1 -286 20 -305 19 -19 33 -20 400 -20 367 0 381 1 400 20 18 18 20 33 20 164 0 86 -4 147 -10 151 -6 4 -10 -46 -10 -142 0 -103 -4 -153 -12 -161 -17 -17 -759 -17 -776 0 -9 9 -12 88 -12 295 l0 283 35 0 35 0 0 -265 0 -265 330 0 330 0 0 161 c0 104 -3 158 -10 154 -6 -4 -10 -65 -10 -151 l0 -144 -310 0 -310 0 0 155 c0 85 -1 158 -2 163 -2 4 33 9 77 13 58 4 95 12 135 32 52 25 139 37 141 20 0 -5 2 -41 4 -80 2 -65 0 -73 -16 -73 -21 0 -39 28 -39 59 0 26 -1 26 -46 -4 -20 -14 -45 -25 -55 -25 -10 0 -21 -5 -25 -12 -11 -17 65 -2 86 17 17 15 19 14 34 -16 9 -18 16 -57 16 -91 l0 -58 -33 0 c-20 0 -52 12 -80 30 -46 29 -107 40 -107 20 0 -5 12 -10 28 -10 15 0 45 -12 67 -27 29 -20 52 -27 83 -27 34 1 42 -2 42 -18 0 -16 9 -18 70 -18 68 0 70 1 70 24 0 14 5 28 10 31 6 4 11 21 11 38 0 54 6 101 14 120 4 9 4 28 1 41 -3 14 -2 28 4 31 27 17 -6 75 -43 75 -9 0 -17 5 -17 11 0 26 140 -24 229 -81 34 -22 61 -44 61 -50 0 -5 11 -17 25 -26 23 -15 27 -15 51 1 37 24 61 86 75 193 20 161 -14 338 -74 377 -20 13 -30 14 -46 5 -20 -10 -21 -8 -21 35 0 44 1 45 33 45 26 0 42 -10 77 -45 24 -25 48 -45 52 -45 4 0 8 20 8 44 0 39 3 45 23 48 21 3 22 8 25 106 l3 102 -107 0 c-101 0 -108 1 -130 25 -22 24 -28 25 -137 25 l-114 0 -13 -42 c-7 -24 -17 -46 -24 -50 -13 -9 -188 -11 -210 -2 -9 3 -16 16 -16 28 0 11 -3 31 -6 44 -6 21 -10 22 -135 22 -116 0 -131 -2 -149 -20z m258 -28 l3 -32 -95 0 -96 0 0 -190 0 -190 -35 0 -35 0 0 209 c0 160 3 211 13 219 10 9 187 21 232 17 6 -1 11 -16 13 -33z m533 16 c7 -10 -7 -14 -56 -16 -49 -2 -65 -7 -65 -17 0 -11 -14 -15 -55 -15 -55 0 -55 0 -49 28 4 15 8 29 9 32 2 3 49 4 106 3 70 -2 105 -6 110 -15z m229 -123 c0 -84 0 -85 -25 -85 -23 0 -25 -4 -25 -42 l0 -42 -38 42 -38 42 -102 0 -102 0 0 85 0 85 165 0 165 0 0 -85z m-740 40 c10 -12 38 -15 135 -15 97 0 125 3 135 15 8 10 31 15 66 15 l54 0 0 -75 c0 -68 2 -76 21 -83 19 -8 21 -16 21 -97 0 -60 -4 -90 -13 -96 -42 -25 -183 -62 -259 -66 -103 -7 -134 -21 -150 -68 -24 -73 16 -147 80 -149 39 -1 44 -36 5 -36 -14 0 -52 -14 -85 -30 -49 -25 -71 -30 -130 -30 l-70 0 -1 65 c-1 36 -2 71 -3 78 -1 6 14 14 34 17 l35 5 0 100 0 100 -38 3 c-30 3 -37 7 -33 18 3 9 6 90 6 180 l0 164 89 0 c66 0 92 -4 101 -15z m520 -206 c0 -63 -5 -72 -52 -100 -17 -9 -18 -3 -18 76 l0 85 35 0 35 0 0 -61z m98 -61 c32 -54 47 -135 46 -253 -1 -128 -23 -221 -61 -257 l-25 -23 -23 28 c-14 15 -29 44 -34 65 -25 94 -25 92 -1 92 12 0 35 13 51 29 41 41 41 101 0 142 -16 16 -39 29 -51 29 -24 0 -24 -2 1 91 11 42 44 89 64 89 7 0 22 -15 33 -32z m-124 -90 c-8 -29 -14 -100 -14 -158 0 -58 6 -129 14 -158 7 -29 12 -52 11 -52 -2 0 -29 16 -61 35 -57 35 -149 67 -227 80 l-38 6 3 91 3 92 70 12 c70 12 153 44 210 82 17 11 33 21 36 21 3 1 0 -22 -7 -51z m-634 -93 l0 -85 -112 0 -112 0 -43 -42 -43 -42 0 42 c0 38 -2 42 -25 42 -25 0 -25 1 -25 85 l0 85 180 0 180 0 0 -85z m290 -65 l0 -80 -30 0 c-17 0 -42 7 -55 16 -21 14 -25 24 -25 64 0 59 18 75 88 79 21 1 22 -2 22 -79z m416 25 c9 -36 -9 -79 -34 -83 -20 -3 -22 1 -22 56 0 32 3 62 6 65 12 11 44 -13 50 -38z m-344 -302 c2 -93 7 -176 12 -186 7 -15 2 -17 -43 -17 l-51 0 0 69 c0 60 2 69 20 74 18 5 20 14 20 91 0 80 -2 87 -25 102 -37 24 -31 34 20 34 l44 0 3 -167z m66 93 c2 -10 -2 -22 -10 -27 -25 -17 -38 -9 -38 22 0 26 3 30 22 27 13 -2 24 -11 26 -22z m-10 -80 c-4 -31 -38 -34 -38 -3 0 29 7 37 27 30 8 -3 13 -15 11 -27z m-10 -58 c7 -7 8 -17 1 -30 -15 -27 -29 -22 -29 12 0 32 9 37 28 18z m-3 -93 c0 -10 -6 -20 -12 -22 -8 -3 -13 5 -13 22 0 17 5 25 13 23 6 -3 12 -13 12 -23z"/> <path d="M996 1149 c-17 -25 -12 -45 15 -60 26 -14 59 5 59 34 0 47 -48 63 -74 26z"/> <path d="M1130 1155 c-17 -21 -4 -62 22 -71 16 -5 27 -1 40 16 22 27 22 34 2 54 -20 20 -48 20 -64 1z"/> <path d="M417 1046 c-35 -32 -42 -67 -23 -105 31 -58 104 -70 150 -25 81 81 -43 208 -127 130z m114 -17 c14 -14 19 -30 17 -57 -4 -48 -22 -48 -26 1 -3 29 -9 41 -28 49 -32 15 -68 -15 -60 -48 7 -26 -12 -43 -25 -23 -15 24 -10 49 16 74 30 31 77 33 106 4z m-31 -34 c10 -12 10 -18 0 -30 -25 -30 -61 -7 -46 30 3 8 12 15 19 15 8 0 20 -7 27 -15z"/> <path d="M630 1010 c0 -6 47 -10 120 -10 73 0 120 4 120 10 0 6 -47 10 -120 10 -73 0 -120 -4 -120 -10z"/> <path d="M633 947 c-2 -4 2 -10 10 -13 22 -8 162 0 160 9 -4 11 -163 15 -170 4z"/> <path d="M220 749 c-8 -14 -3 -26 22 -55 l32 -36 29 32 c17 19 27 40 25 53 -3 19 -10 22 -51 23 -37 1 -50 -3 -57 -17z"/> <path d="M60 750 c0 -5 18 -10 40 -10 22 0 40 5 40 10 0 6 -18 10 -40 10 -22 0 -40 -4 -40 -10z"/> <path d="M55 680 c3 -5 31 -10 61 -10 30 0 54 5 54 10 0 6 -27 10 -61 10 -37 0 -58 -4 -54 -10z"/> <path d="M365 260 c-4 -6 -3 -16 3 -22 6 -6 12 -6 17 2 4 6 3 16 -3 22 -6 6 -12 6 -17 -2z"/> </g> </svg> 