 <svg  version="1.0" xmlns="http://www.w3.org/2000/svg"  width="128.000000pt" height="128.000000pt" viewBox="0 0 128.000000 128.000000"  preserveAspectRatio="xMidYMid meet">  <g transform="translate(0.000000,128.000000) scale(0.100000,-0.100000)" fill="#b30000" stroke="none"> <path d="M287 1262 c-15 -16 -17 -48 -17 -235 0 -119 -4 -217 -9 -217 -14 0 -91 88 -101 115 -12 31 -42 33 -71 4 -47 -47 -100 -216 -85 -272 9 -36 29 -43 69 -24 36 17 149 33 166 23 19 -12 -4 -51 -30 -51 -16 0 -28 -9 -38 -30 -12 -26 -12 -32 3 -59 15 -27 16 -30 2 -38 -25 -14 -19 -22 26 -36 30 -9 44 -10 46 -3 2 6 8 9 13 5 5 -3 9 -96 9 -208 0 -184 2 -204 18 -219 17 -15 61 -17 425 -17 355 0 408 2 421 16 14 13 16 61 16 367 0 231 -3 348 -10 341 -6 -6 -11 -145 -12 -354 l-3 -345 -415 0 -415 0 -5 160 c-3 88 -2 164 2 170 5 5 8 5 8 -2 0 -5 11 -27 25 -46 21 -31 25 -50 27 -129 l3 -93 355 0 355 0 3 354 c1 230 -1 358 -8 365 -7 7 -10 -106 -10 -347 l0 -357 -115 0 -115 0 0 30 c0 24 8 35 43 56 115 72 164 134 151 192 -13 52 -78 165 -123 211 -28 28 -63 52 -88 60 -81 27 -89 60 -31 127 25 28 31 45 35 97 5 61 4 65 -27 101 -43 48 -85 70 -119 60 -14 -3 -39 -7 -56 -8 -22 -1 -29 -5 -27 -18 2 -12 -6 -18 -25 -20 -34 -4 -42 -36 -19 -70 9 -12 16 -41 16 -63 0 -61 18 -112 46 -134 33 -26 25 -49 -18 -58 -41 -8 -109 -76 -127 -127 -7 -21 -22 -59 -33 -84 -19 -42 -22 -44 -34 -27 -20 27 -19 203 0 224 27 30 30 67 7 90 -20 20 -21 31 -21 231 l0 210 104 0 c80 0 106 -3 116 -15 18 -21 237 -22 266 0 13 10 45 14 107 15 l87 0 0 -50 0 -49 -77 -3 -78 -3 -3 -102 -3 -103 26 0 c23 0 25 -4 25 -45 0 -25 4 -45 8 -45 4 0 28 20 52 45 l44 45 118 0 119 0 -3 103 -3 102 -62 3 -63 3 0 84 c0 115 1 115 -160 115 l-129 0 -13 -47 -14 -48 -94 -3 c-118 -4 -140 1 -140 31 0 12 -3 32 -6 45 -6 21 -10 22 -149 22 -125 0 -144 -2 -158 -18z m281 -30 l3 -31 -108 -3 -108 -3 -3 -218 -2 -217 -30 15 -30 16 2 232 3 232 125 5 c69 3 130 5 135 5 6 -1 11 -16 13 -33z m550 23 c8 -3 12 -30 12 -90 l0 -85 -30 0 c-28 0 -29 1 -32 58 l-3 57 -98 3 c-84 2 -98 5 -93 18 3 9 6 23 6 32 0 15 12 17 113 14 61 -2 118 -5 125 -7z m142 -280 l0 -85 -107 0 -107 0 -43 -42 -43 -42 0 42 c0 38 -2 42 -25 42 -25 0 -25 1 -25 85 l0 85 175 0 175 0 0 -85z m-503 -22 c16 -20 23 -39 19 -50 -5 -12 -9 -14 -18 -5 -7 7 -23 12 -35 12 -13 0 -34 7 -46 15 -13 8 -44 16 -70 17 -26 2 -47 5 -47 8 1 11 55 44 84 50 42 8 84 -9 113 -47z m-612 -73 c0 -37 -4 -45 -20 -48 -49 -9 -74 -74 -40 -102 21 -17 19 -30 -8 -64 -56 -70 -76 14 -33 136 45 127 101 170 101 78z m524 12 c10 -9 26 -12 48 -9 32 6 34 4 31 -21 -2 -21 1 -26 15 -24 11 2 17 -4 17 -18 0 -11 -4 -21 -10 -21 -5 -1 -15 -2 -22 -3 -6 0 -12 -11 -13 -23 -4 -59 -81 -84 -123 -40 -30 31 -42 70 -42 132 l0 53 42 -6 c24 -3 49 -12 57 -20z m-472 -52 c14 -17 45 -42 69 -56 25 -15 43 -31 40 -38 -3 -6 -10 -27 -17 -47 -11 -36 -11 -36 -50 -26 -26 6 -56 6 -89 0 -54 -11 -57 -8 -37 22 20 29 47 114 47 147 0 35 5 35 37 -2z m173 -108 c20 -16 21 -23 13 -48 -8 -25 -14 -29 -49 -29 -42 0 -41 -1 -20 63 12 37 24 40 56 14z m350 -40 c0 -5 -13 -18 -29 -29 -21 -16 -31 -19 -40 -10 -19 19 -12 35 17 40 48 7 52 7 52 -1z m24 -31 c3 -4 -5 -18 -18 -30 -29 -27 -47 -10 -20 20 19 21 30 24 38 10z m-104 -22 c0 -24 -23 -21 -28 4 -2 10 3 17 12 17 10 0 16 -9 16 -21z m-39 -23 c8 -16 17 -22 27 -19 12 5 14 0 9 -27 -23 -115 -38 -224 -33 -243 3 -12 12 -31 20 -42 15 -20 16 -19 40 10 24 28 25 37 26 160 l1 130 41 29 41 28 43 -20 c74 -36 176 -187 178 -264 0 -28 -6 -45 -29 -69 -31 -32 -114 -94 -119 -87 -27 32 -24 44 25 95 50 53 50 53 34 80 -28 47 -64 88 -71 80 -4 -3 -1 -13 6 -21 10 -12 9 -31 -4 -92 -17 -84 -32 -103 -83 -104 -23 0 -33 -5 -33 -15 0 -13 -15 -15 -97 -13 l-98 3 -9 68 c-7 57 -6 75 9 108 10 21 15 43 10 47 -4 4 -9 3 -11 -3 -16 -41 -75 -133 -97 -149 l-27 -20 -27 20 c-16 12 -43 51 -62 89 l-34 68 23 17 c24 18 24 18 57 -28 18 -26 38 -47 44 -47 5 0 28 43 50 95 57 137 123 196 150 136z m-251 -63 c-1 -71 -2 -76 -15 -59 -8 11 -15 37 -15 57 0 21 -5 39 -11 41 -17 6 2 38 22 38 17 0 19 -8 19 -77z m-120 22 c10 -12 10 -21 2 -40 -13 -29 -24 -31 -42 -10 -10 12 -10 21 -2 40 13 29 24 31 42 10z m62 -98 c-25 -29 -32 -6 -14 52 l17 54 6 -44 c5 -32 3 -49 -9 -62z m378 -26 c0 -105 -3 -131 -16 -142 -13 -10 -17 -10 -25 2 -12 19 -12 27 8 156 9 62 20 113 25 113 4 0 8 -58 8 -129z m219 -79 c7 -14 4 -25 -15 -48 l-25 -29 5 34 c3 18 6 40 6 47 0 20 18 17 29 -4z m-388 -117 c6 -32 7 -80 4 -106 l-7 -49 -64 0 -64 0 0 81 c0 71 2 80 16 75 19 -7 62 17 83 46 17 25 19 22 32 -47z m319 -46 c13 -24 -3 -41 -57 -59 -53 -18 -75 14 -31 44 12 9 18 17 13 17 -8 1 33 14 57 18 4 0 12 -8 18 -20z m-133 -55 c7 -10 13 -21 13 -26 0 -8 -37 -11 -105 -10 -60 1 -64 2 -60 17 3 8 7 21 9 29 7 22 125 14 143 -10z"/> <path d="M945 1010 c-3 -5 -4 -10 -1 -10 73 -4 276 1 276 7 0 12 -267 16 -275 3z"/> <path d="M945 940 c4 -6 53 -10 116 -10 66 0 109 4 109 10 0 6 -45 10 -116 10 -74 0 -113 -4 -109 -10z"/> </g> </svg> 