 <svg  version="1.0" xmlns="http://www.w3.org/2000/svg"  width="300.000000pt" height="315.000000pt" viewBox="0 0 300.000000 315.000000"  preserveAspectRatio="xMidYMid meet">  <g transform="translate(0.000000,315.000000) scale(0.100000,-0.100000)" fill="#b71f1f" stroke="none"> <path d="M112 2678 c3 -21 11 -24 73 -31 257 -27 405 -116 494 -297 137 -279 115 -525 -64 -706 -33 -33 -80 -77 -105 -97 -52 -42 -49 -57 7 -28 185 94 388 87 552 -19 200 -129 321 -324 321 -515 0 -75 -17 -146 -57 -239 -18 -43 -32 -81 -30 -83 9 -9 34 10 51 38 10 17 44 59 77 93 96 103 242 166 384 166 88 0 234 -36 322 -80 189 -93 282 -236 315 -481 10 -80 14 -89 32 -89 l21 0 0 1195 0 1195 -1198 0 -1198 0 3 -22z m823 -20 c69 3 94 -5 65 -23 -5 -3 -15 -15 -21 -27 -8 -15 -8 -19 0 -14 6 4 11 1 11 -6 0 -8 -9 -14 -19 -14 -11 0 -17 4 -15 8 7 10 -99 58 -126 58 -27 0 -25 18 3 22 12 2 23 1 24 -2 2 -3 37 -4 78 -2z m653 -3 c2 -2 -7 -14 -19 -27 l-24 -24 -35 24 c-42 28 -51 37 -28 29 10 -3 20 -2 22 2 5 8 76 5 84 -4z m492 -17 c-18 -14 -25 -16 -31 -6 -12 18 8 37 33 30 l21 -5 -23 -19z m-1490 2 c-20 -15 -22 -35 -5 -72 4 -10 11 -15 16 -12 15 9 10 -3 -8 -17 -10 -8 -14 -9 -10 -2 5 8 -10 20 -42 35 -27 12 -48 25 -45 29 2 4 -12 10 -30 13 -19 4 -45 16 -58 26 l-23 20 113 -2 c105 -2 111 -3 92 -18z m750 17 c0 -2 -9 -14 -20 -27 -12 -13 -18 -30 -16 -37 7 -18 -7 -16 -30 5 -10 9 -35 27 -54 40 l-35 22 78 0 c42 0 77 -2 77 -3z m440 -3 c0 -3 -7 -12 -15 -21 -14 -13 -19 -13 -48 6 l-32 21 48 0 c26 0 47 -3 47 -6z m157 -6 c-5 -15 -66 -13 -81 2 -7 7 7 10 38 10 34 0 46 -4 43 -12z m526 -83 c-1 -49 -2 -94 -2 -99 -1 -5 -7 -3 -14 3 -23 18 -27 2 -27 -94 l0 -92 -45 11 c-24 7 -47 14 -50 18 -3 3 18 46 48 95 45 73 51 89 35 89 -10 0 -18 -3 -18 -6 0 -3 -10 -16 -23 -30 -13 -14 -36 -52 -51 -85 -41 -88 -40 -87 -65 -103 -22 -15 -23 -15 -18 18 3 18 19 47 36 64 17 18 31 37 31 43 0 6 7 16 15 23 8 7 12 16 9 21 -3 5 -1 9 3 9 5 0 15 16 22 36 11 31 11 38 -4 54 -13 14 -23 16 -53 9 -20 -4 -42 -15 -48 -23 -6 -9 -17 -16 -24 -16 -9 0 -7 6 5 20 10 11 22 20 27 20 15 0 58 49 48 55 -5 3 -49 -17 -97 -45 l-88 -50 -12 48 c-7 26 -13 50 -13 55 0 4 46 7 102 7 79 0 99 3 90 12 -24 24 -10 29 86 26 l97 -3 -2 -90z m-1601 30 c144 -52 250 -240 251 -445 1 -169 -49 -251 -204 -339 -50 -29 -93 -50 -96 -48 -2 3 6 37 18 77 19 63 21 88 17 203 -4 118 -8 143 -40 234 -44 129 -86 200 -167 281 l-63 65 118 -6 c75 -3 136 -11 166 -22z m342 10 c46 -22 121 -102 150 -160 31 -64 50 -166 41 -230 -8 -64 -49 -139 -94 -174 -43 -33 -119 -76 -124 -70 -2 2 3 51 11 109 17 117 10 192 -28 294 -24 63 -84 157 -129 201 -17 17 -31 33 -31 38 0 14 171 8 204 -8z m268 6 c34 -13 86 -69 116 -126 22 -42 27 -63 27 -131 0 -72 -3 -86 -30 -129 -21 -34 -45 -56 -78 -73 -26 -14 -50 -23 -52 -20 -3 3 0 29 6 58 13 61 6 158 -17 222 -8 24 -37 77 -64 119 -28 41 -50 78 -50 82 0 10 115 9 142 -2z m252 -20 c52 -49 85 -169 63 -231 -10 -29 -85 -100 -105 -100 -4 0 -7 42 -8 93 -1 99 -19 157 -69 223 -14 18 -25 36 -25 40 0 3 27 4 60 2 44 -3 66 -10 84 -27z m166 4 c26 -23 51 -138 39 -174 -9 -24 -54 -61 -76 -61 -4 0 -8 29 -9 64 -1 50 -7 77 -30 123 -16 32 -31 62 -33 67 -6 16 89 -1 109 -19z m140 15 c23 -12 44 -82 36 -116 -7 -26 -63 -61 -76 -47 -5 4 -16 37 -25 73 -9 36 -18 73 -21 83 -4 14 1 17 31 17 20 0 45 -5 55 -10z m-1367 -143 c-3 -5 -11 2 -17 15 -7 12 -18 22 -24 21 -6 -2 -10 6 -9 17 1 16 5 14 28 -13 15 -18 25 -36 22 -40z m1677 64 c0 -4 -8 -19 -19 -32 -10 -13 -30 -48 -45 -76 -14 -29 -30 -53 -34 -53 -5 0 -23 15 -41 34 l-32 33 70 42 c38 23 73 46 76 51 8 12 25 13 25 1z m-166 -53 c-10 -12 -24 -27 -29 -34 -6 -6 -21 -10 -35 -9 -29 3 -86 -36 -95 -64 -4 -13 -18 -20 -47 -24 -22 -3 -44 -11 -48 -17 -4 -6 -10 -10 -14 -8 -3 1 -14 -10 -24 -26 -14 -23 -25 -29 -60 -32 -35 -3 -42 0 -42 15 0 10 10 29 23 43 18 19 28 23 45 17 31 -12 66 4 97 45 17 23 33 33 45 31 29 -6 77 16 90 40 13 23 51 42 89 44 24 1 24 1 5 -21z m-15 -104 c48 -40 54 -57 34 -101 -10 -21 -19 -40 -20 -42 -4 -6 -133 121 -133 131 0 10 51 37 72 38 9 0 30 -12 47 -26z m-1389 -99 c12 -28 24 -91 15 -83 -4 3 -6 8 -5 10 2 3 -26 79 -45 123 -8 16 -11 33 -8 39 3 5 13 -9 20 -30 8 -21 19 -48 23 -59z m1249 30 c45 -23 101 -94 101 -127 0 -35 -27 -91 -40 -83 -6 4 -17 21 -26 38 -23 45 -72 95 -116 118 -21 11 -38 23 -38 28 0 10 59 40 78 41 7 0 26 -7 41 -15z m438 -27 c-2 -7 0 -23 4 -35 10 -27 -3 -30 -22 -6 -12 14 -12 16 0 8 11 -6 13 -4 8 9 -4 10 -5 22 -1 27 8 13 16 11 11 -3z m-687 -13 c0 -13 -42 -45 -52 -39 -7 4 -8 3 -4 -4 4 -7 3 -12 -2 -12 -5 0 -9 -12 -8 -26 1 -24 -3 -26 -45 -29 -25 -1 -56 -8 -68 -15 -13 -6 -25 -9 -29 -6 -3 3 -1 6 5 6 6 0 16 14 23 30 7 17 16 30 21 30 5 0 11 11 15 25 7 27 16 30 44 15 20 -11 80 5 80 21 0 5 5 9 10 9 6 0 10 -2 10 -5z m624 -18 c19 -14 40 -107 24 -107 -5 0 -46 9 -92 21 -91 23 -97 32 -55 78 23 25 94 29 123 8z m-472 -47 c77 -51 126 -140 108 -197 -14 -45 -34 -83 -45 -83 -5 0 -21 25 -34 55 -28 66 -117 153 -185 181 -25 11 -46 21 -46 25 0 3 19 15 43 26 60 31 105 29 159 -7z m295 -9 c-2 -30 -58 -86 -72 -73 -5 4 -5 1 -1 -5 4 -7 0 -23 -8 -35 -14 -19 -14 -23 2 -34 15 -11 14 -14 -12 -35 -65 -51 -97 -103 -85 -135 13 -33 10 -44 -16 -54 -13 -5 -34 -19 -45 -30 -25 -25 -45 -18 -30 10 5 10 10 34 10 53 0 24 5 37 18 41 42 16 61 32 73 63 7 18 16 33 20 33 4 0 7 16 7 36 0 34 26 69 44 58 5 -3 8 4 8 14 0 11 7 25 15 32 8 7 12 16 10 21 -11 16 6 55 28 65 30 14 37 8 34 -25z m-739 -85 c9 -7 16 -6 22 3 5 9 10 10 14 2 4 -6 3 -11 -2 -11 -5 0 -14 -12 -21 -26 -9 -20 -9 -30 0 -40 13 -16 16 -15 -71 -18 -30 -1 -65 -8 -77 -14 -15 -9 -23 -9 -23 -2 0 6 7 13 15 16 8 4 15 11 15 16 0 9 12 25 60 84 5 7 6 15 2 19 -9 9 49 -16 66 -29z m984 -24 c-4 -19 -7 -22 -10 -9 -2 9 -8 15 -13 12 -5 -4 -9 3 -9 15 0 14 4 19 12 14 8 -5 9 -1 5 12 -7 18 -6 18 7 1 8 -10 11 -28 8 -45z m-126 32 c63 -18 84 -43 84 -100 l0 -42 -57 31 c-43 23 -73 31 -129 35 l-73 5 14 27 c33 64 64 73 161 44z m-589 -18 c90 -42 165 -137 180 -230 4 -28 -1 -51 -26 -101 -33 -67 -47 -78 -57 -47 -45 138 -164 267 -283 307 -28 9 -53 20 -56 25 -9 14 115 70 154 70 20 0 59 -11 88 -24z m713 -147 l0 -52 -22 28 c-20 26 -20 29 -5 40 9 7 17 17 17 24 0 6 2 11 5 11 3 0 5 -23 5 -51z m-125 14 c62 -32 79 -57 85 -124 3 -33 4 -61 2 -63 -2 -2 -27 12 -55 31 -74 50 -90 55 -204 62 l-102 6 30 48 c16 26 40 52 52 57 36 16 147 5 192 -17z m-1170 -3 c17 -18 46 -22 61 -7 4 4 12 7 18 7 6 -1 1 -9 -11 -19 -13 -11 -23 -24 -23 -31 0 -6 -5 -8 -10 -5 -14 9 -8 -16 8 -33 21 -23 14 -28 -38 -26 -28 2 -66 -4 -85 -12 -19 -8 -38 -13 -42 -12 -5 1 -19 -4 -33 -12 -24 -13 -24 -12 5 23 17 19 36 36 43 36 6 1 12 8 12 16 0 9 6 18 14 21 8 3 22 21 31 40 18 39 25 41 50 14z m404 -16 c55 -29 150 -124 176 -174 8 -16 21 -54 29 -84 13 -49 13 -63 1 -111 -17 -63 -74 -170 -85 -158 -4 4 -15 31 -25 58 -63 175 -150 278 -295 348 -52 25 -107 49 -122 53 -16 3 -28 9 -28 13 0 3 37 26 83 50 78 41 86 43 148 38 47 -3 81 -12 118 -33z m-785 -149 c-13 -34 72 -76 91 -45 4 6 11 8 16 5 5 -4 -2 -17 -16 -31 -36 -36 -33 -67 8 -83 19 -8 34 -19 34 -27 0 -9 -5 -10 -19 -3 -29 16 -219 13 -229 -3 -6 -9 -9 -6 -9 11 0 13 11 37 25 55 56 69 75 101 75 125 0 14 5 19 14 15 8 -3 12 -12 10 -19z m1510 -16 c23 -11 60 -38 82 -60 37 -38 39 -43 44 -119 3 -44 4 -80 3 -80 -2 0 -30 20 -63 44 -91 67 -156 89 -277 94 -61 2 -109 0 -121 -7 -12 -6 -23 -7 -26 -2 -7 11 63 110 96 134 53 39 175 38 262 -4z m-1068 17 c197 -52 369 -244 381 -423 6 -85 -10 -137 -72 -244 l-48 -80 -27 83 c-69 212 -176 347 -365 460 -65 39 -170 78 -210 78 -46 0 -26 18 78 71 141 72 174 79 263 55z m1230 -36 c-3 -19 -2 -29 4 -25 13 8 12 -2 -5 -45 -13 -33 -14 -33 -14 -9 -1 15 -8 32 -16 39 -16 13 -21 45 -6 35 6 -3 15 4 21 15 16 29 23 25 16 -10z m-536 -75 c-7 -19 -6 -32 5 -49 15 -23 14 -25 -36 -56 -29 -17 -59 -38 -67 -46 -19 -20 -28 -9 -15 19 18 36 22 66 13 97 -10 34 1 46 28 31 14 -7 26 -5 48 10 36 24 35 24 24 -6z m-940 -80 c17 -9 30 -17 30 -19 0 -10 -43 3 -57 17 -21 21 -11 22 27 2z m1238 -43 c66 -25 130 -74 168 -127 26 -36 29 -50 34 -140 3 -55 5 -102 3 -104 -1 -2 -30 22 -64 53 -92 86 -187 127 -335 146 -78 10 -179 -1 -226 -25 -36 -17 -36 -5 -1 54 57 99 98 138 173 162 43 15 190 3 248 -19z m244 -89 c-5 -78 -6 -81 -29 -45 -12 19 -18 43 -15 57 3 20 11 27 42 34 3 0 4 -20 2 -46z m-1279 14 c9 -4 22 -18 27 -32 5 -14 12 -25 16 -25 3 0 3 7 0 16 -5 14 -4 15 9 4 17 -14 20 -40 5 -40 -5 0 -22 16 -37 35 -15 19 -34 35 -40 35 -7 0 -13 8 -13 18 0 10 3 13 8 6 4 -6 15 -13 25 -17z m523 -90 c8 3 14 9 14 13 0 4 9 10 20 13 17 4 19 1 14 -18 -8 -32 12 -65 39 -65 16 0 7 -9 -33 -32 -30 -18 -74 -52 -98 -76 l-42 -43 6 43 c3 24 10 55 16 70 6 15 8 50 5 78 l-6 50 25 -19 c14 -11 32 -17 40 -14z m-416 -18 c0 -11 4 -18 9 -15 5 3 11 -1 15 -9 8 -22 -17 -13 -35 13 -8 12 -19 19 -22 15 -4 -3 -7 -1 -7 5 0 12 21 22 33 15 4 -2 7 -13 7 -24z m840 -97 c93 -32 132 -57 191 -119 85 -89 93 -108 99 -253 3 -69 4 -127 3 -129 -1 -2 -30 21 -63 52 -171 159 -351 226 -570 214 -58 -4 -130 -13 -160 -21 -30 -9 -56 -13 -58 -11 -7 6 76 148 111 190 31 38 102 79 164 95 59 15 220 4 283 -18z m330 -168 c0 -74 -2 -85 -14 -75 -8 7 -18 26 -21 42 -4 16 -11 29 -16 29 -5 0 -8 3 -7 8 3 15 -22 62 -33 62 -7 0 -9 3 -6 6 4 4 13 1 21 -5 8 -7 20 -10 25 -6 7 4 8 -1 4 -12 -4 -11 2 -8 18 9 13 15 25 28 27 28 1 0 2 -39 2 -86z m-1026 10 c3 -9 6 -27 6 -40 0 -17 4 -23 12 -18 8 5 9 2 4 -12 -4 -10 -4 -15 0 -12 4 4 15 3 25 -2 12 -7 22 -6 31 3 17 18 48 29 48 18 0 -5 -5 -11 -11 -13 -12 -4 1 -39 27 -75 15 -21 14 -22 -28 -44 -24 -11 -53 -30 -65 -41 -12 -11 -26 -17 -32 -13 -6 3 -11 -1 -11 -9 0 -9 -4 -16 -8 -16 -4 0 -8 44 -7 98 0 53 -3 118 -7 145 -7 45 3 65 16 31z m564 -134 c63 -10 61 -18 -4 -14 -73 4 -102 13 -83 25 8 5 21 6 29 3 8 -4 34 -10 58 -14z m278 -135 c15 -13 26 -27 23 -29 -3 -3 -21 8 -40 24 -19 16 -29 29 -23 30 6 0 24 -11 40 -25z m102 -81 c8 -2 19 -9 23 -16 7 -10 9 -10 9 1 0 8 3 11 6 8 4 -4 15 2 24 13 17 20 18 20 21 -7 2 -16 3 -63 1 -106 -3 -66 -6 -76 -18 -66 -8 6 -14 17 -14 23 0 20 -36 84 -79 141 -46 60 -55 86 -14 40 14 -16 32 -30 41 -31z"/> </g> </svg> 