 <svg  version="1.0" xmlns="http://www.w3.org/2000/svg"  width="300.000000pt" height="287.000000pt" viewBox="0 0 300.000000 287.000000"  preserveAspectRatio="xMidYMid meet">  <g transform="translate(0.000000,287.000000) scale(0.100000,-0.100000)" fill="#ad0b0b" stroke="none"> <path d="M1360 2860 c-33 -5 -17 -7 65 -9 156 -2 312 -42 396 -102 16 -11 35 -19 41 -17 19 7 -78 59 -165 90 -43 15 -103 30 -133 33 -113 10 -160 12 -204 5z"/> <path d="M1206 2779 c-126 -17 -346 -88 -346 -111 0 -6 6 -8 13 -5 195 87 260 101 467 101 154 1 185 -2 254 -22 77 -22 117 -23 60 -2 -98 38 -320 57 -448 39z"/> <path d="M2089 2737 c-60 -23 -96 -54 -123 -109 -51 -102 -25 -214 63 -269 84 -54 124 -57 283 -23 22 5 34 0 58 -24 18 -18 30 -41 30 -56 0 -42 19 -30 46 29 78 170 26 346 -127 430 -63 34 -171 44 -230 22z m167 -42 c107 -32 184 -137 184 -251 0 -35 -5 -75 -10 -89 -10 -26 -11 -27 -33 -11 -46 34 -69 38 -137 25 -93 -18 -145 -14 -196 16 -131 77 -102 271 46 313 51 15 90 14 146 -3z"/> <path d="M2225 2644 c-22 -11 -35 -13 -53 -5 -37 17 -67 13 -91 -13 -51 -54 -27 -141 57 -200 56 -40 101 -40 143 0 73 69 89 155 40 205 -33 33 -53 36 -96 13z m-58 -48 l28 -24 28 24 c33 27 72 31 81 8 26 -69 -40 -186 -96 -169 -89 27 -140 105 -108 166 14 25 33 24 67 -5z"/> <path d="M508 2624 c-5 -4 -8 -90 -8 -191 0 -156 -2 -183 -15 -183 -34 0 -55 -38 -55 -99 0 -50 -3 -59 -20 -64 -17 -4 -20 -14 -20 -59 l0 -53 125 0 125 0 0 47 c0 37 -5 51 -20 60 -16 10 -20 24 -20 69 0 45 -4 60 -23 77 -13 12 -31 22 -40 22 -15 0 -17 21 -19 191 -2 105 -6 187 -10 183z m42 -435 c6 -10 10 -31 10 -48 0 -17 9 -48 20 -68 10 -20 17 -40 14 -45 -7 -11 -151 -10 -158 1 -3 5 3 29 14 52 11 24 20 58 20 76 0 55 56 77 80 32z"/> <path d="M1356 2373 c-4 -5 -27 -9 -49 -10 -101 -6 -128 -11 -145 -26 -10 -9 -28 -17 -40 -17 -23 0 -62 -44 -62 -70 0 -13 -6 -17 -20 -13 -29 8 -52 -15 -49 -51 1 -17 -3 -44 -10 -59 -6 -16 -8 -33 -5 -39 3 -5 -3 -18 -15 -29 -25 -23 -27 -66 -6 -96 8 -11 16 -41 18 -66 5 -52 12 -67 34 -67 11 0 14 -6 9 -25 -5 -19 0 -32 18 -50 14 -14 30 -25 36 -25 5 0 10 -7 10 -15 0 -25 38 -55 70 -55 18 0 39 -10 55 -25 21 -22 34 -26 78 -25 28 1 68 -2 87 -5 28 -5 42 -1 69 19 39 29 43 29 34 -2 -3 -13 -16 -25 -32 -28 -110 -24 -291 -117 -401 -206 -33 -26 -60 -42 -60 -35 -1 6 -7 76 -14 155 -10 108 -18 148 -30 160 -14 14 -42 17 -155 20 -163 3 -206 -7 -234 -55 -17 -30 -17 -37 -4 -108 l14 -75 -217 0 c-155 0 -219 -3 -228 -12 -15 -15 -15 -61 0 -76 9 -9 7 -12 -10 -12 -12 0 -26 -9 -32 -19 -12 -24 -13 -71 -1 -90 6 -9 2 -20 -10 -32 -15 -15 -18 -28 -14 -57 3 -20 16 -152 30 -292 14 -140 32 -311 40 -380 8 -69 15 -131 15 -137 0 -14 66 -18 73 -5 3 4 -6 151 -18 327 -13 176 -25 354 -27 395 l-3 75 227 3 c250 3 227 8 242 -60 7 -33 50 -84 85 -102 14 -8 45 -17 68 -21 32 -5 43 -12 47 -30 3 -13 22 -44 41 -69 l35 -46 0 -160 0 -160 -75 0 c-89 0 -127 -16 -145 -59 -23 -56 -13 -61 109 -61 86 0 110 -3 114 -15 17 -43 165 -110 291 -130 l39 -6 -7 -90 -7 -89 27 -10 c47 -18 196 -23 349 -10 250 19 395 55 395 98 0 11 -25 173 -55 361 -30 188 -55 344 -55 346 0 1 23 6 51 10 28 4 53 13 56 20 5 15 -14 412 -23 462 l-6 33 58 -35 c117 -71 231 -84 322 -39 64 32 106 79 146 164 29 61 31 72 31 180 0 103 -3 122 -29 183 -32 77 -30 82 40 123 61 36 101 86 119 148 16 56 13 81 -12 90 -21 9 -30 0 -57 -52 -13 -26 -34 -56 -46 -67 l-23 -20 17 32 c21 41 20 53 -3 53 -10 0 -31 -17 -47 -37 -15 -21 -42 -54 -60 -74 -17 -20 -35 -52 -39 -70 -4 -19 -11 -36 -16 -39 -4 -3 -24 -62 -44 -130 -19 -69 -48 -150 -63 -180 -37 -76 -55 -76 -178 -6 -113 65 -181 80 -327 75 l-99 -4 7 44 c9 61 13 68 45 81 38 16 42 29 20 78 -10 22 -16 50 -13 61 3 14 0 23 -11 27 -18 7 -22 39 -5 49 6 4 9 22 7 40 -1 19 1 37 5 41 14 15 7 65 -13 81 -11 10 -20 28 -20 40 0 13 -12 31 -30 45 -17 12 -30 31 -30 43 0 32 -33 57 -70 53 -18 -2 -34 3 -39 11 -5 7 -21 14 -37 14 -15 0 -34 6 -42 13 -14 15 -54 19 -66 7z m73 -54 c20 -6 44 -15 53 -20 10 -5 28 -9 40 -9 34 0 40 -7 96 -100 45 -76 50 -89 45 -127 -5 -37 -8 -41 -24 -33 -51 28 -67 29 -93 9 -21 -17 -26 -29 -26 -65 0 -40 -5 -50 -40 -81 -43 -39 -51 -73 -25 -107 26 -34 18 -75 -20 -113 -31 -31 -39 -35 -68 -28 -17 5 -52 8 -77 9 -31 1 -55 8 -74 24 -16 12 -38 22 -50 22 -25 0 -100 76 -111 111 -4 13 -13 31 -20 39 -7 8 -17 33 -20 55 -4 22 -14 53 -22 69 -13 25 -13 33 6 76 11 26 23 66 27 89 5 32 18 54 55 92 58 59 79 69 189 85 113 16 118 16 159 3z m1211 -201 c-1 -48 -33 -112 -71 -141 -111 -85 -124 -93 -154 -87 -16 3 -29 9 -27 13 1 4 2 16 2 26 0 11 17 39 38 63 20 24 49 60 63 79 34 43 48 32 20 -16 -25 -42 -25 -45 -8 -45 19 0 61 48 86 98 26 51 51 56 51 10z m-996 -150 c28 -29 49 -59 48 -66 -2 -7 5 -34 14 -59 15 -38 15 -46 3 -54 -26 -16 -82 -29 -106 -23 -14 4 -23 2 -23 -5 0 -6 15 -11 33 -11 l33 0 -1 -79 c0 -65 3 -83 20 -101 l20 -22 -60 6 c-157 17 -156 17 -151 34 15 46 56 193 56 197 0 3 -6 5 -14 5 -21 0 -46 28 -46 51 0 23 17 25 42 2 17 -15 18 -15 18 14 0 17 7 37 16 44 12 10 15 25 12 61 -8 77 14 79 86 6z m801 -101 c18 -33 46 -117 55 -167 37 -206 -76 -413 -240 -435 -81 -11 -244 45 -290 100 -20 25 -41 19 -31 -8 9 -22 26 -225 35 -409 4 -91 1 -98 -43 -98 -15 0 -306 -94 -355 -115 -17 -8 -18 -4 -12 61 3 38 8 112 12 165 l6 96 -41 7 c-38 6 -41 8 -31 27 6 11 10 32 8 47 -2 21 -8 27 -28 27 -24 0 -25 4 -32 74 -8 89 -41 196 -80 257 -16 26 -31 45 -33 43 -2 -3 14 -40 36 -84 40 -81 69 -188 69 -257 0 -35 -2 -38 -29 -38 l-29 0 -4 88 c-5 93 -31 180 -72 242 l-24 37 41 18 c22 10 60 24 84 31 40 12 43 12 41 -4 -3 -15 13 -18 122 -28 69 -6 127 -9 129 -7 3 2 -7 16 -21 31 -46 50 -44 60 19 68 67 8 185 -2 248 -21 25 -7 76 -31 113 -54 152 -91 172 -81 240 124 16 50 35 114 42 144 l13 53 40 -6 c23 -4 42 -8 42 -9z m-1517 -210 c6 -7 16 -71 22 -142 5 -72 12 -142 15 -158 4 -22 -5 -37 -43 -80 l-47 -52 -132 0 -132 0 -10 45 c-10 42 -9 46 15 66 16 13 22 23 14 26 -14 4 -17 45 -6 71 7 14 3 17 -22 17 -36 0 -40 9 -48 100 -6 64 -5 70 19 94 26 26 27 26 185 26 117 0 162 -3 170 -13z m377 -176 c37 -59 65 -153 72 -241 l6 -79 -29 -12 c-16 -6 -67 -12 -114 -13 -98 -2 -140 -19 -160 -66 -10 -24 -10 -33 1 -46 17 -21 56 -13 111 23 24 15 52 28 63 30 14 2 16 1 7 -6 -11 -6 -7 -20 18 -64 l31 -55 -63 -45 c-213 -151 -356 -140 -413 33 -57 173 62 352 354 532 42 26 79 47 83 47 4 1 19 -17 33 -38z m-699 -86 l1 -35 -113 0 c-62 0 -119 3 -128 6 -16 6 -22 45 -9 57 3 4 61 7 127 7 l121 0 1 -35z m-308 -2 c3 -10 -15 -13 -67 -13 -65 0 -90 8 -74 24 12 12 136 2 141 -11z m172 -63 l-135 -6 121 -2 122 -2 4 -45 c2 -32 -1 -45 -10 -45 -7 0 -10 5 -7 10 4 7 -60 10 -184 10 l-191 0 0 35 c0 33 2 35 33 36 31 2 31 2 4 6 -16 3 -35 -1 -43 -8 -19 -15 -18 -54 2 -74 15 -15 12 -16 -42 -13 l-59 3 -3 39 c-6 70 -20 66 265 64 219 -2 237 -3 123 -8z m-42 -97 c-38 -2 -98 -2 -135 0 -38 2 -7 3 67 3 74 0 105 -1 68 -3z m424 -53 l-17 -30 -343 0 c-290 0 -343 -2 -348 -14 -3 -8 6 -183 20 -388 15 -205 26 -379 26 -385 0 -7 -10 -13 -23 -13 -23 0 -24 3 -50 253 -52 481 -60 574 -54 590 6 15 43 17 406 17 l400 0 -17 -30z m648 -59 c0 -37 -8 -42 -109 -81 l-83 -32 -21 21 -21 21 43 44 c45 46 57 50 154 54 35 2 37 0 37 -27z m-686 -33 c-8 -29 -11 -67 -8 -85 6 -31 4 -33 -21 -33 -66 0 -128 52 -150 124 l-14 46 103 0 103 0 -13 -52z m431 10 c15 -6 11 -7 -14 -3 -18 3 -50 5 -70 5 -27 0 -32 3 -21 10 15 10 70 4 105 -12z m-31 -17 c8 -12 -107 -62 -118 -51 -5 5 -6 20 -2 34 6 24 11 26 61 26 29 0 56 -4 59 -9z m352 -35 c1 -2 -15 -271 -30 -530 -14 -225 -15 -229 -40 -255 -25 -24 -33 -26 -135 -29 -142 -5 -252 16 -351 65 -114 58 -113 52 -60 291 l43 200 48 4 c60 6 137 44 223 109 56 42 65 53 55 65 -17 21 -5 30 82 63 56 22 85 27 119 23 25 -3 45 -5 46 -6z m-589 -260 c2 -2 -56 -268 -60 -272 -2 -2 -3 62 -2 142 l0 144 30 -6 c17 -3 31 -7 32 -8z m873 -25 c0 -5 22 -148 50 -317 41 -255 48 -311 37 -322 -25 -25 -277 -66 -277 -45 0 3 20 41 45 84 51 88 58 116 33 132 -14 9 -22 8 -37 -8 -25 -26 -111 -187 -111 -208 0 -11 -13 -18 -45 -23 -64 -9 -252 -1 -266 13 -9 9 -16 100 -7 108 2 2 47 8 101 13 104 10 131 22 170 74 16 21 21 57 32 222 7 122 17 202 24 209 16 16 189 75 224 76 15 1 27 -3 27 -8z m-944 -303 c-3 -13 -6 -33 -6 -45 0 -22 -3 -23 -105 -23 -95 0 -105 2 -105 18 0 44 24 57 117 63 48 3 92 6 97 7 4 1 6 -8 2 -20z m834 -175 c0 -6 -107 -201 -117 -212 -1 -2 -5 -2 -8 1 -7 7 107 217 118 218 4 0 7 -3 7 -7z"/> <path d="M1800 1000 c-45 -89 -79 -164 -76 -167 3 -3 41 68 86 157 45 89 79 164 76 167 -3 3 -41 -68 -86 -157z"/> <path d="M1881 1006 c-12 -27 -20 -54 -18 -60 2 -6 14 11 26 38 12 27 20 54 18 60 -2 6 -14 -11 -26 -38z"/> <path d="M433 1403 c32 -2 81 -2 110 0 29 2 3 3 -58 3 -60 0 -84 -1 -52 -3z"/> <path d="M380 1300 l-165 -6 173 -2 c113 -1 171 1 167 8 -3 6 -7 9 -8 8 -1 -1 -76 -5 -167 -8z"/> <path d="M220 1273 c0 -9 269 -7 278 1 3 3 -58 6 -136 6 -78 0 -142 -3 -142 -7z"/> <path d="M1262 813 c-80 -32 -155 -100 -178 -158 -18 -48 -15 -135 6 -174 l11 -21 37 25 c20 14 47 40 60 58 25 37 62 136 62 164 -1 16 -2 16 -16 -2 -8 -11 -27 -44 -42 -73 -34 -71 -71 -110 -83 -91 -23 37 -1 115 47 163 31 30 114 76 138 76 20 0 34 -28 46 -88 11 -59 -1 -116 -31 -148 -27 -29 -55 -33 -44 -6 11 27 18 139 10 159 -5 13 -12 -2 -22 -52 -16 -78 -50 -161 -78 -188 -27 -27 -14 -29 54 -6 123 42 175 126 152 242 -12 57 -49 148 -60 147 -4 -1 -34 -13 -69 -27z"/> <path d="M170 1920 c0 -13 -7 -20 -20 -20 -11 0 -20 -4 -20 -10 0 -15 29 -12 46 4 16 17 19 46 4 46 -5 0 -10 -9 -10 -20z"/> <path d="M2617 1175 c-16 -8 -36 -24 -45 -35 -9 -11 -35 -25 -57 -32 l-40 -13 0 -70 c-1 -63 -3 -70 -22 -73 -19 -3 -20 1 -15 44 4 42 3 47 -12 41 -10 -4 -22 -7 -27 -7 -5 0 -9 -8 -9 -17 -1 -17 -1 -17 -11 0 -6 9 -14 15 -20 12 -5 -4 1 -23 13 -44 21 -36 21 -39 5 -55 -16 -16 -17 -15 -17 18 0 40 -7 47 -39 39 -16 -4 -20 -11 -16 -27 5 -18 5 -19 -5 -3 -12 18 -30 23 -30 8 0 -5 12 -24 27 -42 l28 -33 -27 18 c-15 10 -32 15 -38 11 -6 -4 -10 9 -10 34 0 39 -10 57 -24 43 -4 -4 -13 -7 -19 -7 -7 0 -11 -8 -11 -18 2 -13 -1 -15 -11 -7 -10 8 -15 8 -20 -1 -5 -7 5 -21 24 -36 29 -23 30 -26 16 -46 -13 -20 -12 -26 5 -54 10 -18 15 -33 10 -35 -8 -3 -75 -586 -82 -713 l-3 -50 75 -6 c41 -4 188 -7 326 -8 l250 -1 80 29 c78 29 79 30 77 63 -4 57 -53 581 -58 624 -5 38 -7 40 -34 36 -16 -2 -38 1 -50 7 -18 10 -21 21 -21 76 0 60 2 65 23 66 21 1 21 1 -2 8 -36 10 -42 36 -6 27 45 -11 54 -28 57 -106 l3 -72 23 18 c34 28 41 93 13 137 -25 41 -26 60 -6 77 22 18 20 102 -3 123 -48 43 -142 2 -142 -61 0 -16 -8 -36 -18 -45 -27 -25 -37 -21 -18 8 24 36 21 120 -4 145 -24 24 -45 25 -83 5z m4 -81 c-52 -47 -76 -97 -69 -144 l3 -25 28 28 c26 25 34 27 107 27 77 0 80 1 94 28 13 26 56 71 56 60 0 -15 -69 -106 -75 -100 -4 4 -5 -5 -3 -20 l5 -28 -103 0 c-56 0 -109 3 -118 6 -37 14 -7 114 52 172 24 23 51 42 59 42 8 0 -8 -21 -36 -46z m59 -22 c0 -36 -16 -52 -52 -52 -36 0 -35 7 4 47 39 40 48 41 48 5z m-206 -144 c16 -52 15 -65 -7 -77 -22 -11 -22 -11 0 -6 l22 6 -19 -39 c-29 -60 -43 -58 -67 10 l-22 59 22 10 c20 8 19 9 -5 4 -34 -6 -36 8 -6 29 27 19 77 21 82 4z m130 -29 c-3 -5 -12 -9 -20 -9 -9 0 -23 -8 -32 -17 -16 -16 -17 -15 -20 1 -7 32 4 42 42 38 20 -2 33 -8 30 -13z m-310 -4 c21 -21 31 -58 17 -63 -6 -2 -11 -8 -11 -13 0 -4 6 -6 14 -3 9 3 19 -4 26 -16 8 -14 8 -20 1 -16 -6 4 -24 0 -42 -9 -17 -9 -32 -15 -33 -13 -44 61 -46 66 -31 78 9 7 13 15 10 18 -2 3 -11 -1 -20 -8 -12 -10 -15 -10 -15 3 0 15 45 57 61 57 4 0 14 -7 23 -15z m478 -66 c4 -41 10 -240 14 -443 l7 -369 -319 7 c-175 4 -321 10 -323 12 -3 2 1 55 7 117 7 61 24 225 38 362 14 138 28 252 30 254 2 2 11 -2 19 -9 13 -11 23 -11 54 0 34 11 43 10 69 -6 30 -17 32 -17 71 1 39 17 41 17 72 -3 33 -20 33 -20 71 -1 38 19 38 19 78 -1 l40 -20 38 20 c26 15 29 19 12 15 -74 -19 -70 -20 -70 19 0 29 -7 44 -31 66 -18 15 -38 26 -45 23 -21 -8 -16 5 6 17 15 8 20 8 18 -1 -2 -6 3 -14 10 -16 7 -3 12 3 12 14 0 15 8 18 57 17 l58 -2 7 -73z m-383 -7 c13 -35 20 -66 18 -69 -13 -12 -45 24 -64 73 -19 50 -20 55 -5 63 22 12 24 9 51 -67z m262 7 c10 -10 19 -30 19 -44 0 -23 -2 -24 -25 -13 -21 9 -33 8 -62 -6 -35 -16 -38 -16 -70 1 -36 19 -41 37 -17 64 24 26 128 25 155 -2z m226 -431 c29 -307 28 -323 -21 -316 -21 3 -21 7 -23 318 -2 199 1 309 7 299 5 -9 21 -144 37 -301z"/> <path d="M2647 953 c18 -2 50 -2 70 0 21 2 7 4 -32 4 -38 0 -55 -2 -38 -4z"/> <path d="M415 644 c-4 -42 -5 -119 -3 -171 l5 -94 -23 34 c-23 34 -72 73 -81 64 -11 -11 23 -124 58 -194 l37 -73 -24 0 c-23 0 -24 -3 -24 -75 0 -67 3 -79 25 -100 23 -24 31 -25 133 -25 138 0 142 3 142 118 l0 82 -41 0 c-35 0 -40 2 -34 17 26 60 36 125 32 203 -4 76 -20 140 -36 140 -3 0 -15 -19 -25 -43 -15 -33 -20 -38 -23 -22 -15 77 -81 215 -102 215 -5 0 -13 -34 -16 -76z m72 -197 l17 -127 12 59 c14 67 57 169 50 116 -3 -17 -10 -88 -17 -158 -7 -70 -16 -127 -21 -127 -4 0 -8 6 -9 13 0 9 -2 9 -6 0 -8 -20 -23 -15 -23 8 0 13 4 18 11 13 8 -5 10 0 6 17 -21 90 -68 377 -66 405 2 35 28 -90 46 -219z m117 -32 c0 -57 -6 -111 -17 -147 -21 -69 -41 -78 -33 -16 3 24 11 99 17 166 9 96 15 120 23 105 5 -10 10 -58 10 -108z m-224 -2 c35 -39 73 -116 85 -170 6 -30 4 -33 -17 -33 -28 0 -54 40 -93 144 -39 104 -31 123 25 59z m196 -243 c35 0 44 -13 44 -64 0 -48 -14 -56 -104 -56 -92 0 -102 4 -111 43 -11 42 2 77 28 77 12 0 28 4 36 9 8 5 27 5 45 0 17 -5 45 -9 62 -9z"/> <path d="M369 386 c13 -20 36 -67 52 -104 16 -37 29 -60 29 -51 0 21 -75 175 -91 185 -7 4 -2 -9 10 -30z"/> </g> </svg> 